<?xml version="1.0" encoding="UTF-8" standalone="no"?>
<svg
   width="132mm"
   height="131.99999999999997mm"
   viewBox="-73 -73.99999999999999 132 131.99999999999997"
   version="1.1"
   id="svg1"
   sodipodi:docname="VMS_gasket.svg"
   inkscape:version="1.4.2 (ebf0e940d0, 2025-05-08)"
   xmlns:inkscape="http://www.inkscape.org/namespaces/inkscape"
   xmlns:sodipodi="http://sodipodi.sourceforge.net/DTD/sodipodi-0.dtd"
   xmlns="http://www.w3.org/2000/svg"
   xmlns:svg="http://www.w3.org/2000/svg">
  <defs
     id="defs1" />
  <sodipodi:namedview
     id="namedview1"
     pagecolor="#ffffff"
     bordercolor="#000000"
     borderopacity="0.25"
     inkscape:showpageshadow="2"
     inkscape:pageopacity="0.0"
     inkscape:pagecheckerboard="0"
     inkscape:deskcolor="#d1d1d1"
     inkscape:document-units="mm"
     inkscape:zoom="1.7458491"
     inkscape:cx="249.44882"
     inkscape:cy="249.44882"
     inkscape:window-width="1920"
     inkscape:window-height="1112"
     inkscape:window-x="0"
     inkscape:window-y="0"
     inkscape:window-maximized="1"
     inkscape:current-layer="svg1" />
  <title
     id="title1">svgOutput</title>
  <desc
     id="desc1">made with tinkercad</desc>
  <path
     d="M 57.4900016784668 50.16099929809569 L 57.34400177001953 50.50672531127928 L 56.88399887084961 51.596000671386705 L 56.07099914550781 52.905998229980455 L 55.07099914550781 54.0709991455078 L 53.90599822998047 55.0709991455078 L 53.24800109863281 55.479362487792955 L 52.59600067138672 55.883998870849595 L 51.1609992980957 56.49000167846678 L 49.62200164794922 56.86899948120116 L 49.152000427246094 56.90695953369139 L 48.198001861572266 56.984008789062486 L 48 56.999999999999986 L 42 56.999999999999986 L 30 56.999999999999986 L -44.400001525878906 56.999999999999986 L -49.152000427246094 56.999999999999986 L -57.34400177001953 56.999999999999986 L -61.439998626708984 56.999999999999986 L -62 56.999999999999986 L -63.62200164794922 56.86899948120116 L -64 56.775913238525376 L -64.5 56.65277862548827 L -65.16100311279297 56.49000167846678 L -65.53600311279297 56.331638336181626 L -65.68171691894531 56.27010345458983 L -66.59600067138672 55.883998870849595 L -66.77787780761719 55.77112579345702 L -66.8030014038086 55.75553512573241 L -67.90599822998047 55.0709991455078 L -69.07099914550781 54.0709991455078 L -70.07099914550781 52.905998229980455 L -70.88400268554688 51.596000671386705 L -71.48999786376953 50.16099929809569 L -71.73847961425781 49.15200042724608 L -71.86900329589844 48.622001647949205 L -72 46.99999999999999 L -72 32.76800155639648 L -72 1.1102230246251565e-16 L -72 -62.999999999999986 L -71.86900329589844 -64.6220016479492 L -71.64391326904297 -65.53600311279295 L -71.48999786376953 -66.16100311279295 L -70.88400268554688 -67.5960006713867 L -70.07099914550781 -68.90599822998045 L -69.07099914550781 -70.0709991455078 L -67.90599822998047 -71.0709991455078 L -66.8030014038086 -71.75553131103514 L -66.59600067138672 -71.88400268554686 L -65.53600311279297 -72.33163452148436 L -65.16100311279297 -72.48999786376952 L -64.5 -72.65277862548827 L -64 -72.77590942382811 L -63.62200164794922 -72.86900329589842 L -62 -72.99999999999999 L -61.439998626708984 -72.99999999999999 L -57.34400177001953 -72.99999999999999 L -56.5 -72.99999999999999 L -56 -72.99999999999999 L -49.152000427246094 -72.99999999999999 L -44.400001525878906 -72.99999999999999 L -37.50199890136719 -72.99999999999999 L -37.50199890136719 -71.99999999999999 L -32.768001556396484 -71.99999999999999 L 0 -71.99999999999999 L 23.50200080871582 -71.99999999999999 L 23.50200080871582 -72.99999999999999 L 30 -72.99999999999999 L 32.768001556396484 -72.99999999999999 L 42 -72.99999999999999 L 42.5 -72.99999999999999 L 48 -72.99999999999999 L 48.198001861572266 -72.98400878906249 L 49.152000427246094 -72.90695953369139 L 49.62200164794922 -72.86900329589842 L 50 -72.77590942382811 L 50.5 -72.65277862548827 L 51.1609992980957 -72.48999786376952 L 52.59600067138672 -71.88400268554686 L 53.24800109863281 -71.47936248779295 L 53.90599822998047 -71.0709991455078 L 55.07099914550781 -70.0709991455078 L 56.07099914550781 -68.90599822998045 L 56.88399887084961 -67.5960006713867 L 57.34400177001953 -66.50672912597655 L 57.4900016784668 -66.16100311279295 L 57.64391326904297 -65.53600311279295 L 57.86899948120117 -64.6220016479492 L 58 -62.999999999999986 L 58 -57.499999999999986 L 58 -49.15200042724608 L 58 -46.4000015258789 L 58 -41.227886199951165 L 58 -38.50199890136718 L 57 -38.50199890136718 L 57 -32.76800155639648 L 57 1.1102230246251565e-16 L 57 22.502000808715817 L 58 22.502000808715817 L 58 27.999999999999993 L 58 32.76800155639648 L 58 40.95999908447265 L 58 46.99999999999999 L 57.86899948120117 48.622001647949205 L 57.77591323852539 48.999999999999986 L 57.73847961425781 49.15200042724608 L 57.4900016784668 50.16099929809569 M 45.47800064086914 41.03400039672851 L 46 40.99999999999999 L 46.52199935913086 41.03400039672851 L 47.00299835205078 41.12963867187499 L 47.00299835205078 41.12516021728515 L 47.00299835205078 41.04281616210937 L 47.00299835205078 40.99999999999999 L 47.00299835205078 32.76800155639648 L 47.00299835205078 27.999999999999993 L 47.00299835205078 22.502000808715817 L 49 22.502000808715817 L 49 1.1102230246251565e-16 L 49 -32.76800155639648 L 49 -38.50199890136718 L 47.00299835205078 -38.50199890136718 L 47.00299835205078 -42.1160545349121 L 47.00299835205078 -44.377944946289055 L 47.00299835205078 -46.4000015258789 L 47.00299835205078 -46.426990509033196 L 47.00299835205078 -48.335571289062486 L 47.00299835205078 -49.15200042724608 L 47.00299835205078 -57.34400177001952 L 47.00299835205078 -57.499999999999986 L 47.00299835205078 -57.53276062011717 L 46.5 -57.499999999999986 L 45.97800064086914 -57.5340003967285 L 45.46500015258789 -57.63600158691405 L 45.055999755859375 -57.77453231811522 L 44.96900177001953 -57.80400085449217 L 44.5 -58.03599929809569 L 44.064998626708984 -58.326999664306626 L 43.672000885009766 -58.67200088500975 L 43.32699966430664 -59.06499862670897 L 43.0359992980957 -59.499999999999986 L 42.80400085449219 -59.96900177001952 L 42.63600158691406 -60.465000152587876 L 42.534000396728516 -60.978000640869126 L 42.50390625 -61.43999862670897 L 42.5 -61.499999999999986 L 42.53276062011719 -62.00299835205077 L 42.53022384643555 -62.00299835205077 L 42.5 -62.00299835205077 L 42 -62.00299835205077 L 39.30226135253906 -62.00299835205077 L 38.62464904785156 -62.00299835205077 L 38.107975006103516 -62.00299835205077 L 37.802249908447266 -62.00299835205077 L 37.59600067138672 -62.131000518798814 L 36.1609992980957 -62.736999511718736 L 34.62200164794922 -63.116001129150376 L 33 -63.247001647949205 L 32.768001556396484 -63.228263854980455 L 31.378000259399414 -63.116001129150376 L 30 -62.77664947509764 L 29.839000701904297 -62.736999511718736 L 28.40399932861328 -62.131000518798814 L 28.197751998901367 -62.00299835205077 L 28.10089683532715 -62.00299835205077 L 26.858455657958984 -62.00299835205077 L 23.50200080871582 -62.00299835205077 L 23.50200080871582 -62.47990036010741 L 23.50200080871582 -63.999999999999986 L 16.384000778198242 -63.999999999999986 L 0 -63.999999999999986 L -32.768001556396484 -63.999999999999986 L -34.0834846496582 -63.999999999999986 L -36.13153839111328 -63.999999999999986 L -37.50199890136719 -63.999999999999986 L -37.50199890136719 -62.00299835205077 L -37.70717239379883 -62.00299835205077 L -38.887847900390625 -62.00299835205077 L -39.87276840209961 -62.00299835205077 L -40.69773864746094 -62.00299835205077 L -41.37535095214844 -62.00299835205077 L -41.892024993896484 -62.00299835205077 L -42.197750091552734 -62.00299835205077 L -42.40399932861328 -62.131000518798814 L -43.8390007019043 -62.736999511718736 L -44.400001525878906 -62.87515258789061 L -45.37799835205078 -63.116001129150376 L -47 -63.247001647949205 L -48.62200164794922 -63.116001129150376 L -49.152000427246094 -62.98548126220702 L -50.1609992980957 -62.736999511718736 L -51.59600067138672 -62.131000518798814 L -51.802249908447266 -62.00299835205077 L -51.89910125732422 -62.00299835205077 L -53.141544342041016 -62.00299835205077 L -56 -62.00299835205077 L -56.5 -62.00299835205077 L -56.53276062011719 -62.00299835205077 L -56.5 -61.499999999999986 L -56.50390625 -61.43999862670897 L -56.534000396728516 -60.978000640869126 L -56.63600158691406 -60.465000152587876 L -56.80400085449219 -59.96900177001952 L -57.0359992980957 -59.499999999999986 L -57.32699966430664 -59.06499862670897 L -57.34400177001953 -59.04563522338866 L -57.672000885009766 -58.67200088500975 L -58.064998626708984 -58.326999664306626 L -58.5 -58.03599929809569 L -58.96900177001953 -57.80400085449217 L -59.46500015258789 -57.63600158691405 L -59.97800064086914 -57.5340003967285 L -60.5 -57.499999999999986 L -61.00299835205078 -57.53276062011717 L -61.00299835205078 -57.53022384643553 L -61.00299835205078 -57.499999999999986 L -61.00299835205078 -57.34400177001952 L -61.00299835205078 -49.15200042724608 L -61.00299835205078 -44.377944946289055 L -61.00299835205078 -32.76800155639648 L -61.00299835205078 1.1102230246251565e-16 L -61.00299835205078 32.76800155639648 L -61.00299835205078 40.99999999999999 L -61.00299835205078 41.06533050537109 L -61.00299835205078 41.12963867187499 L -60.52199935913086 41.03400039672851 L -60 40.99999999999999 L -59.47800064086914 41.03400039672851 L -58.96500015258789 41.136001586914055 L -58.46900177001953 41.30400085449218 L -58 41.535999298095696 L -57.564998626708984 41.82699966430663 L -57.34400177001953 42.02100753784179 L -57.172000885009766 42.17200088500976 L -56.82699966430664 42.56499862670898 L -56.5359992980957 42.99999999999999 L -56.30400085449219 43.469001770019524 L -56.13600158691406 43.96500015258788 L -56.034000396728516 44.47800064086913 L -56 44.99999999999999 L -56.00364685058594 45.05599975585937 L -56.034000396728516 45.52199935913085 L -56.129638671875 46.002998352050774 L -56.125160217285156 46.002998352050774 L -56.042816162109375 46.002998352050774 L -56 46.002998352050774 L -49.152000427246094 46.002998352050774 L -44.400001525878906 46.002998352050774 L -32.768001556396484 46.002998352050774 L 0 46.002998352050774 L 30 46.002998352050774 L 32.768001556396484 46.002998352050774 L 42 46.002998352050774 L 42.065330505371094 46.002998352050774 L 42.129638671875 46.002998352050774 L 42.034000396728516 45.52199935913085 L 42.00364685058594 45.05599975585937 L 42 44.99999999999999 L 42.034000396728516 44.47800064086913 L 42.13600158691406 43.96500015258788 L 42.30400085449219 43.469001770019524 L 42.5359992980957 42.99999999999999 L 42.82699966430664 42.56499862670898 L 43.172000885009766 42.17200088500976 L 43.564998626708984 41.82699966430663 L 44 41.535999298095696 L 44.46900177001953 41.30400085449218 L 44.96500015258789 41.136001586914055 L 45.055999755859375 41.11790466308593 L 45.47800064086914 41.03400039672851 M 52.69633483886719 49.15200042724608 L 52.68599319458008 48.999999999999986 L 52.68299865722656 48.95600128173827 L 52.625999450683594 48.66699981689452 L 52.53099822998047 48.388000488281236 L 52.4010009765625 48.12400054931639 L 52.23699951171875 47.87900161743163 L 52.12868881225586 47.755054473876946 L 52.042999267578125 47.65700149536132 L 51.86745834350586 47.50360107421874 L 51.82099914550781 47.463001251220696 L 51.57600021362305 47.298999786376946 L 51.567596435546875 47.29486083984374 L 51.3120002746582 47.16899871826171 L 51.24498748779297 47.14618301391601 L 51.20000076293945 47.13086318969726 L 51.03300094604492 47.07400131225585 L 50.90874481201172 47.04949188232421 L 50.74399948120117 47.01699829101562 L 50.565975189208984 47.00549316406249 L 50.45000076293945 46.998001098632805 L 50.19670867919922 47.0143699645996 L 50.15599822998047 47.01699829101562 L 50 47.04776763916015 L 49.867000579833984 47.07400131225585 L 49.84453201293945 47.08164978027343 L 49.5880012512207 47.16899871826171 L 49.501853942871094 47.21142196655273 L 49.32400131225586 47.298999786376946 L 49.247344970703125 47.35031127929687 L 49.21530532836914 47.37175750732421 L 49.152000427246094 47.41413497924804 L 49.07899856567383 47.463001251220696 L 48.856998443603516 47.65700149536132 L 48.66299819946289 47.87900161743163 L 48.51066207885742 48.10657882690428 L 48.499000549316406 48.12400054931639 L 48.49445724487305 48.13322448730467 L 48.4383544921875 48.24716186523436 L 48.36899948120117 48.388000488281236 L 48.35969924926758 48.415309906005845 L 48.292022705078125 48.614067077636705 L 48.27399826049805 48.66699981689452 L 48.237060546875 48.85429000854491 L 48.21699905395508 48.95600128173827 L 48.21415710449219 48.999999999999986 L 48.2043342590332 49.15200042724608 L 48.198001861572266 49.249999999999986 L 48.21699905395508 49.543998718261705 L 48.27399826049805 49.833000183105455 L 48.36899948120117 50.111999511718736 L 48.499000549316406 50.37599945068358 L 48.66299819946289 50.620998382568345 L 48.856998443603516 50.84299850463866 L 48.88042449951172 50.86347198486327 L 49.07899856567383 51.03699874877928 L 49.152000427246094 51.08586502075194 L 49.18705368041992 51.1093292236328 L 49.322505950927734 51.20000076293944 L 49.32400131225586 51.20100021362303 L 49.5880012512207 51.33100128173827 L 49.867000579833984 51.425998687744126 L 50.15599822998047 51.48300170898436 L 50.45000076293945 51.50299835205077 L 50.74399948120117 51.48300170898436 L 51.03300094604492 51.425998687744126 L 51.20000076293945 51.36913681030272 L 51.3120002746582 51.33100128173827 L 51.57600021362305 51.20100021362303 L 51.57749557495117 51.20000076293944 L 51.82099914550781 51.03699874877928 L 52.042999267578125 50.84299850463866 L 52.23699951171875 50.620998382568345 L 52.4010009765625 50.37599945068358 L 52.53099822998047 50.111999511718736 L 52.625999450683594 49.833000183105455 L 52.68299865722656 49.543998718261705 L 52.694583892822266 49.3737335205078 L 52.702999114990234 49.249999999999986 L 52.69633483886719 49.15200042724608 M 50.74399948120117 -67.88300323486327 L 50.5 -67.89959716796874 L 50.45000076293945 -67.90299987792967 L 50.15599822998047 -67.88300323486327 L 50 -67.85223388671874 L 49.867000579833984 -67.82599639892577 L 49.5880012512207 -67.73100280761717 L 49.32400131225586 -67.60099792480467 L 49.29860305786133 -67.58399963378905 L 49.152000427246094 -67.48586273193358 L 49.07899856567383 -67.43699645996092 L 48.856998443603516 -67.2429962158203 L 48.66299819946289 -67.02100372314452 L 48.499000549316406 -66.77600097656249 L 48.36899948120117 -66.51200103759764 L 48.27399826049805 -66.23300170898436 L 48.21699905395508 -65.94400024414061 L 48.198001861572266 -65.65000152587889 L 48.20536804199219 -65.53600311279295 L 48.20769500732422 -65.49999999999999 L 48.21699905395508 -65.35600280761717 L 48.22956848144531 -65.29227447509764 L 48.2630500793457 -65.1225128173828 L 48.27207946777344 -65.07674407958983 L 48.27399826049805 -65.06700134277342 L 48.36899948120117 -64.78800201416014 L 48.499000549316406 -64.5240020751953 L 48.66299819946289 -64.27899932861327 L 48.856998443603516 -64.05699920654295 L 49.07899856567383 -63.86299896240233 L 49.152000427246094 -63.81413650512694 L 49.32400131225586 -63.699001312255845 L 49.5880012512207 -63.56900024414061 L 49.867000579833984 -63.473999023437486 L 49.988739013671875 -63.44998931884764 L 50 -63.44776916503905 L 50.05876159667969 -63.43618011474608 L 50.15599822998047 -63.41699981689452 L 50.189056396484375 -63.41486358642577 L 50.37606430053711 -63.40277862548827 L 50.45000076293945 -63.39799880981444 L 50.5 -63.40122985839842 L 50.74399948120117 -63.41699981689452 L 51.03300094604492 -63.473999023437486 L 51.07411575317383 -63.48799896240233 L 51.20000076293945 -63.53086471557616 L 51.3120002746582 -63.56900024414061 L 51.57600021362305 -63.699001312255845 L 51.82099914550781 -63.86299896240233 L 52.042999267578125 -64.05699920654295 L 52.23699951171875 -64.27899932861327 L 52.4010009765625 -64.5240020751953 L 52.48616409301758 -64.6969528198242 L 52.53099822998047 -64.78800201416014 L 52.601078033447266 -64.99380493164061 L 52.625999450683594 -65.06700134277342 L 52.67575454711914 -65.31927490234374 L 52.68299865722656 -65.35600280761717 L 52.69524383544922 -65.53600311279295 L 52.702999114990234 -65.65000152587889 L 52.68299865722656 -65.94400024414061 L 52.625999450683594 -66.23300170898436 L 52.53099822998047 -66.51200103759764 L 52.4010009765625 -66.77600097656249 L 52.23699951171875 -67.02100372314452 L 52.042999267578125 -67.2429962158203 L 51.89868927001953 -67.36911010742186 L 51.82099914550781 -67.43699645996092 L 51.60139465332031 -67.58399963378905 L 51.57600021362305 -67.60099792480467 L 51.3120002746582 -67.73100280761717 L 51.20000076293945 -67.76913452148436 L 51.03300094604492 -67.82599639892577 L 50.74399948120117 -67.88300323486327 M -65.41200256347656 -67.83100128173827 L -65.53600311279297 -67.76993560791014 L -65.6760025024414 -67.70099639892577 L -65.9209976196289 -67.53700256347655 L -66.14299774169922 -67.34300231933592 L -66.33699798583984 -67.12100219726561 L -66.5009994506836 -66.87599945068358 L -66.63099670410156 -66.61199951171874 L -66.72599792480469 -66.33300018310545 L -66.77366638183594 -66.09132385253905 L -66.78299713134766 -66.0439987182617 L -66.8030014038086 -65.74999999999999 L -66.78844451904297 -65.53600311279295 L -66.78299713134766 -65.45600128173827 L -66.72599792480469 -65.16699981689452 L -66.63099670410156 -64.88800048828124 L -66.5009994506836 -64.62400054931639 L -66.33699798583984 -64.37899780273436 L -66.14299774169922 -64.15699768066405 L -66.11957550048828 -64.1365280151367 L -65.9209976196289 -63.96300125122069 L -65.8467788696289 -63.91331863403319 L -65.6760025024414 -63.79899978637694 L -65.54454040527344 -63.73426437377928 L -65.53600311279297 -63.730060577392564 L -65.4900131225586 -63.707416534423814 L -65.41200256347656 -63.668998718261705 L -65.13300323486328 -63.574001312255845 L -64.84400177001953 -63.51699829101561 L -64.55000305175781 -63.4980010986328 L -64.5 -63.50123214721678 L -64.25599670410156 -63.51699829101561 L -64.25062561035156 -63.518058776855455 L -64 -63.56748962402342 L -63.99470520019531 -63.568534851074205 L -63.96699905395508 -63.574001312255845 L -63.899009704589844 -63.59715270996092 L -63.6879997253418 -63.668998718261705 L -63.42399978637695 -63.79899978637694 L -63.17900085449219 -63.96300125122069 L -62.957000732421875 -64.15699768066405 L -62.76300048828125 -64.37899780273436 L -62.5989990234375 -64.62400054931639 L -62.46900177001953 -64.88800048828124 L -62.431602478027344 -64.99783325195311 L -62.407554626464844 -65.06845855712889 L -62.374000549316406 -65.16699981689452 L -62.36780548095703 -65.19841003417967 L -62.34800720214844 -65.29878997802733 L -62.31700134277344 -65.45600128173827 L -62.31415557861328 -65.49999999999999 L -62.31182861328125 -65.53600311279295 L -62.29800033569336 -65.74999999999999 L -62.31700134277344 -66.0439987182617 L -62.374000549316406 -66.33300018310545 L -62.46900177001953 -66.61199951171874 L -62.5989990234375 -66.87599945068358 L -62.652137756347656 -66.95538330078124 L -62.76300048828125 -67.12100219726561 L -62.87131118774414 -67.24494171142577 L -62.957000732421875 -67.34300231933592 L -62.99362564086914 -67.37500762939452 L -63.17900085449219 -67.53700256347655 L -63.26826477050781 -67.5967559814453 L -63.42399978637695 -67.70099639892577 L -63.487998962402344 -67.73251342773436 L -63.6879997253418 -67.83100128173827 L -63.96699905395508 -67.92600250244139 L -64 -67.93251037597655 L -64.25599670410156 -67.98300170898436 L -64.5 -67.99959564208983 L -64.55000305175781 -68.00299835205077 L -64.84400177001953 -67.98300170898436 L -65.13300323486328 -67.92600250244139 L -65.41200256347656 -67.83100128173827 M -65.4981460571289 47.21142196655273 L -65.53600311279297 47.23006057739257 L -65.6760025024414 47.298999786376946 L -65.9209976196289 47.463001251220696 L -66.14299774169922 47.65700149536132 L -66.33699798583984 47.87900161743163 L -66.5009994506836 48.12400054931639 L -66.63099670410156 48.388000488281236 L -66.72599792480469 48.66699981689452 L -66.77366638183594 48.90867996215819 L -66.78299713134766 48.95600128173827 L -66.79633331298828 49.15200042724608 L -66.8030014038086 49.249999999999986 L -66.78299713134766 49.543998718261705 L -66.72599792480469 49.833000183105455 L -66.63099670410156 50.111999511718736 L -66.5009994506836 50.37599945068358 L -66.35822296142578 50.589298248291 L -66.33699798583984 50.620998382568345 L -66.14299774169922 50.84299850463866 L -66.11957550048828 50.86347198486327 L -65.9209976196289 51.03699874877928 L -65.8467788696289 51.08668136596678 L -65.6760025024414 51.20100021362303 L -65.54454040527344 51.26573562622069 L -65.53600311279297 51.26993942260741 L -65.41200256347656 51.33100128173827 L -65.13300323486328 51.425998687744126 L -64.84400177001953 51.48300170898436 L -64.55000305175781 51.50299835205077 L -64.5 51.499599456787095 L -64.25599670410156 51.48300170898436 L -64 51.43251037597655 L -63.96699905395508 51.425998687744126 L -63.6879997253418 51.33100128173827 L -63.487998962402344 51.23251342773436 L -63.42399978637695 51.20100021362303 L -63.42250442504883 51.20000076293944 L -63.17900085449219 51.03699874877928 L -62.957000732421875 50.84299850463866 L -62.76300048828125 50.620998382568345 L -62.65257263183594 50.45603179931639 L -62.5989990234375 50.37599945068358 L -62.46900177001953 50.111999511718736 L -62.374000549316406 49.833000183105455 L -62.31700134277344 49.543998718261705 L -62.29800033569336 49.249999999999986 L -62.3043327331543 49.15200042724608 L -62.31415557861328 48.999999999999986 L -62.31700134277344 48.95600128173827 L -62.374000549316406 48.66699981689452 L -62.400089263916016 48.590385437011705 L -62.46900177001953 48.388000488281236 L -62.5989990234375 48.12400054931639 L -62.69804763793945 47.97603225708007 L -62.7531623840332 47.89369964599609 L -62.76300048828125 47.87900161743163 L -62.957000732421875 47.65700149536132 L -63.04767608642578 47.57776260375976 L -63.11946487426758 47.51502609252929 L -63.17900085449219 47.463001251220696 L -63.26267623901367 47.406990051269524 L -63.42399978637695 47.298999786376946 L -63.432403564453125 47.29486083984374 L -63.43824768066406 47.29198455810546 L -63.633155822753906 47.19600677490234 L -63.6879997253418 47.16899871826171 L -63.75501251220703 47.14618301391601 L -63.86259460449219 47.10955047607421 L -63.96699905395508 47.07400131225585 L -64 47.06748962402343 L -64.09125518798828 47.04949188232421 L -64.25599670410156 47.01699829101562 L -64.43402862548828 47.00549316406249 L -64.5 47.00123214721679 L -64.55000305175781 46.998001098632805 L -64.80329132080078 47.0143699645996 L -64.84400177001953 47.01699829101562 L -65.13300323486328 47.07400131225585 L -65.15547180175781 47.08164978027343 L -65.41200256347656 47.16899871826171 L -65.4981460571289 47.21142196655273 z"
     fill="none"
     stroke="rgb(255,0,0)"
     stroke-width="0.001mm"
     id="path1"
     style="stroke-width:0.26458333;stroke-dasharray:none;vector-effect:non-scaling-stroke;-inkscape-stroke:hairline" />
</svg>
