<?xml version="1.0" encoding="UTF-8" standalone="no"?>
<!-- Created with Inkscape (http://www.inkscape.org/) -->

<svg
   width="130mm"
   height="129.99998mm"
   viewBox="0 0 130.00001 129.99998"
   version="1.1"
   id="svg1"
   inkscape:version="1.4.2 (ebf0e940d0, 2025-05-08)"
   sodipodi:docname="FSense_Case_front panel_v3.svg"
   xml:space="preserve"
   xmlns:inkscape="http://www.inkscape.org/namespaces/inkscape"
   xmlns:sodipodi="http://sodipodi.sourceforge.net/DTD/sodipodi-0.dtd"
   xmlns="http://www.w3.org/2000/svg"
   xmlns:svg="http://www.w3.org/2000/svg"><sodipodi:namedview
     id="namedview1"
     pagecolor="#ffffff"
     bordercolor="#000000"
     borderopacity="0.25"
     inkscape:showpageshadow="2"
     inkscape:pageopacity="0.0"
     inkscape:pagecheckerboard="0"
     inkscape:deskcolor="#d1d1d1"
     inkscape:document-units="mm"
     showguides="true"
     inkscape:zoom="1.009145"
     inkscape:cx="195.21477"
     inkscape:cy="228.41119"
     inkscape:window-width="1920"
     inkscape:window-height="1112"
     inkscape:window-x="0"
     inkscape:window-y="0"
     inkscape:window-maximized="1"
     inkscape:current-layer="svg1"
     showgrid="false"><sodipodi:guide
       position="37.02717,165.24718"
       orientation="0,1"
       id="guide1"
       inkscape:locked="false"
       inkscape:label=""
       inkscape:color="rgb(0,134,229)" /><sodipodi:guide
       position="11.857346,-34.75282"
       orientation="0,1"
       id="guide2"
       inkscape:locked="false"
       inkscape:label=""
       inkscape:color="rgb(0,134,229)" /><sodipodi:guide
       position="165,80.372909"
       orientation="-1,0"
       id="guide3"
       inkscape:locked="false"
       inkscape:label=""
       inkscape:color="rgb(0,134,229)" /><sodipodi:guide
       position="-34.999997,125.46845"
       orientation="-1,0"
       id="guide4"
       inkscape:locked="false"
       inkscape:label=""
       inkscape:color="rgb(0,134,229)" /><sodipodi:guide
       position="82.06865,106.99999"
       orientation="0,1"
       id="guide12"
       inkscape:locked="false"
       inkscape:label=""
       inkscape:color="rgb(0,134,229)" /><sodipodi:guide
       position="26,125.54283"
       orientation="-1,0"
       id="guide13"
       inkscape:locked="false"
       inkscape:label=""
       inkscape:color="rgb(0,134,229)" /><inkscape:page
       x="3.2032133e-14"
       y="1.0254325e-13"
       width="130"
       height="129.99998"
       id="page1"
       margin="0"
       bleed="0" /><sodipodi:guide
       position="-28.142843,92.999985"
       orientation="0,1"
       id="guide5"
       inkscape:locked="false"
       inkscape:label=""
       inkscape:color="rgb(0,134,229)" /><sodipodi:guide
       position="-25.013608,76.999985"
       orientation="0,1"
       id="guide6"
       inkscape:locked="false"
       inkscape:label=""
       inkscape:color="rgb(0,134,229)" /><sodipodi:guide
       position="-29.506498,62.999985"
       orientation="0,1"
       id="guide7"
       inkscape:locked="false"
       inkscape:label=""
       inkscape:color="rgb(0,134,229)" /><sodipodi:guide
       position="-25.662484,47.999985"
       orientation="0,1"
       id="guide8"
       inkscape:locked="false"
       inkscape:label=""
       inkscape:color="rgb(0,134,229)" /><sodipodi:guide
       position="-10.659389,32.999985"
       orientation="0,1"
       id="guide9"
       inkscape:locked="false"
       inkscape:label=""
       inkscape:color="rgb(0,134,229)" /><sodipodi:guide
       position="34.809759,134.90131"
       orientation="1,0"
       id="guide10"
       inkscape:locked="false" /></sodipodi:namedview><defs
     id="defs1" /><g
     inkscape:groupmode="layer"
     id="layer5"
     inkscape:label="Back-plate"
     style="display:inline"
     transform="translate(-54.999996,-55.247195)"><rect
       style="display:inline;opacity:1;vector-effect:non-scaling-stroke;fill:none;stroke:#00ff00;stroke-width:0.265298;stroke-dasharray:none;-inkscape-stroke:hairline"
       id="rect15-1"
       width="115"
       height="115"
       x="62.5"
       y="62.500008"
       inkscape:label="Guide" /><circle
       style="display:inline;opacity:0.579399;vector-effect:non-scaling-stroke;fill:none;stroke:#ff0000;stroke-width:0.132291;stroke-dasharray:none;-inkscape-stroke:hairline"
       id="circle12-7-3-2-8"
       cx="94.539871"
       cy="239.94437"
       r="2.25"
       transform="translate(-32.039872,-62.444363)" /><circle
       style="display:inline;opacity:0.579399;vector-effect:non-scaling-stroke;fill:none;stroke:#ff0000;stroke-width:0.132291;stroke-dasharray:none;-inkscape-stroke:hairline"
       id="circle12-7"
       cx="94.539871"
       cy="124.94437"
       r="2.25"
       transform="translate(-32.039872,-62.444363)" /><circle
       style="display:inline;opacity:0.579399;vector-effect:non-scaling-stroke;fill:none;stroke:#ff0000;stroke-width:0.132291;stroke-dasharray:none;-inkscape-stroke:hairline"
       id="circle12-7-3"
       cx="209.53987"
       cy="124.94437"
       r="2.25"
       transform="translate(-32.039872,-62.444363)" /><circle
       style="display:inline;opacity:0.579399;vector-effect:non-scaling-stroke;fill:none;stroke:#ff0000;stroke-width:0.132291;stroke-dasharray:none;-inkscape-stroke:hairline"
       id="circle12-7-3-2"
       cx="209.53987"
       cy="239.94437"
       r="2.25"
       transform="translate(-32.039872,-62.444363)" /><rect
       style="display:inline;opacity:0.579399;vector-effect:non-scaling-stroke;fill:none;stroke:#ff0000;stroke-width:0.299902;stroke-dasharray:none;-inkscape-stroke:hairline"
       id="rect2"
       width="130"
       height="130"
       x="55"
       y="55.247192"
       rx="10"
       ry="10" /></g><path
     d="m 36.915475,20.814052 q -0.341753,0 -0.531922,0.504362 l -1.209917,3.227363 q -0.04134,0.132291 -0.04134,0.190169 0,0.05512 -0.0028,0.112999 0,0.05788 0.06339,0.146072 0.06339,0.09371 0.184657,0.132291 0.16812,0.04961 0.303168,-0.05512 0.137803,-0.104731 0.214974,-0.2949 l 0.418923,-1.02526 h 1.185112 l 0.418923,1.02526 q 0.0689,0.173632 0.23151,0.297656 0.135048,0.104731 0.303168,0.05236 0.110243,-0.03583 0.173633,-0.118511 0.06339,-0.07993 0.06615,-0.129535 0.0055,-0.05237 0.0083,-0.101975 0.0028,-0.05237 -0.02756,-0.173633 -0.01102,-0.03583 -0.01929,-0.05788 l -1.212673,-3.227363 q -0.187413,-0.504362 -0.52641,-0.504362 z m 0.289388,2.14147 -0.606337,0.0055 0.305925,-0.810286 z m 2.607246,-2.364712 q -0.165364,0.0028 -0.214974,0.05512 -0.04961,0.04961 -0.101975,0.101975 -0.04961,0.04961 -0.05237,0.214974 l -0.09371,3.781334 q -0.0028,0.170876 0.09095,0.281119 0.09371,0.118512 0.267339,0.121268 0.190169,0.0028 0.303168,-0.107487 0.112999,-0.107487 0.115755,-0.286632 l 0.08544,-3.77031 q 0.0028,-0.179144 -0.05237,-0.23151 -0.05237,-0.05512 -0.107487,-0.107487 -0.05512,-0.05236 -0.239778,-0.05236 z m 3.009633,4.351841 q 0.06339,0.148828 0.190169,0.209462 0.121268,0.06339 0.275608,0.02756 0.129535,-0.02756 0.192925,-0.129536 0.06339,-0.09371 0.03859,-0.225998 -0.01929,-0.104731 -0.09922,-0.242535 -0.129535,-0.228754 -0.121267,-0.810285 0.01378,-0.757921 0.0689,-1.066601 0.03307,-0.198437 -0.01102,-0.267339 -0.04134,-0.07166 -0.08544,-0.14056 -0.04134,-0.0689 -0.228754,-0.112999 -0.159852,-0.04134 -0.283875,0.01654 -0.790994,-0.195681 -1.499305,0.325217 -0.562239,0.471289 -0.553971,1.322916 0.0028,0.650433 0.319705,0.992186 0.319704,0.341754 1.014235,0.341754 0.261827,-0.0028 0.782725,-0.239779 z m -0.91226,-0.369314 q -0.242535,-0.01654 -0.303169,-0.104731 -0.06063,-0.09095 -0.121267,-0.179144 -0.06063,-0.08819 -0.06615,-0.479557 0.02481,-0.5898 0.487826,-0.912261 0.107486,-0.07717 0.297656,-0.121267 0.214973,-0.04961 0.416167,0.04134 -0.104731,0.471289 -0.01654,1.521353 -0.201193,0.15434 -0.275607,0.179145 -0.192925,0.0689 -0.418923,0.05512 z m 2.436369,-2.560393 q -0.159852,0 -0.259071,0.06615 -0.09922,0.07166 -0.101974,0.190169 l -0.06063,2.571417 q -0.0028,0.148828 0.08544,0.228755 0.07993,0.07441 0.253559,0.07717 0.179145,0.0028 0.286632,-0.07441 0.126779,-0.09095 0.132291,-0.220486 l 0.05237,-1.670181 q 0.278363,-0.181901 0.496093,-0.225998 0.278364,-0.05788 0.479557,0.0689 0.15434,0.09646 0.190169,0.107486 0.09646,0.02756 0.181901,-0.01654 0.08819,-0.04685 0.148828,-0.173633 0.02205,-0.04134 0.06615,-0.173632 0.09922,-0.283876 -0.383094,-0.507118 -0.250803,-0.118511 -0.642166,-0.112999 -0.23151,0.0055 -0.52641,0.132291 -0.03307,-0.146071 -0.15434,-0.214973 -0.09371,-0.05237 -0.245291,-0.05237 z m 2.648588,0 q -0.159853,0 -0.209462,0.04961 -0.04685,0.04961 -0.09646,0.101974 -0.04961,0.04961 -0.05512,0.198438 l -0.06063,2.364711 q -0.0028,0.168121 0.08544,0.275608 0.09922,0.118511 0.256315,0.121267 0.176388,0.0028 0.283875,-0.107487 0.115755,-0.118511 0.121267,-0.300412 l 0.04685,-1.339452 q 0.07166,-0.250803 0.135047,-0.303168 0.06339,-0.05512 0.12678,-0.107487 0.06339,-0.05237 0.264583,-0.04685 0.07441,0.0028 0.101975,0.01929 0.02756,0.01654 0.05236,0.03307 0.02756,0.01654 0.04961,0.05512 0.02205,0.03583 0.0441,0.07441 0.02205,0.03859 0.0441,0.173632 0.02205,0.14056 0.01654,0.325217 l -0.03032,1.091405 q -0.0028,0.181901 0.09095,0.305925 0.09371,0.121267 0.270095,0.124023 0.03032,0 0.06063,-0.0028 0.181901,-0.01654 0.23151,-0.07993 0.04961,-0.06339 0.09922,-0.12678 0.04961,-0.06339 0.05512,-0.261827 l 0.03583,-1.237477 q 0.0028,-0.110243 0.0055,-0.132292 0.08268,-0.203949 0.15434,-0.248046 0.07166,-0.04685 0.143316,-0.09095 0.07166,-0.04685 0.297656,-0.04134 0.07441,0.0028 0.101975,0.01929 0.03032,0.01654 0.05788,0.03583 0.03032,0.01654 0.05237,0.05512 0.02481,0.03858 0.04685,0.07993 0.02205,0.03859 0.0441,0.179145 0.02205,0.143316 0.01929,0.338997 l -0.01654,1.124479 q 0,0.187413 0.09646,0.305924 0.09095,0.118511 0.259071,0.121267 0.02756,0 0.05788,-0.0028 0.170876,-0.01654 0.21773,-0.08268 0.04685,-0.06339 0.09095,-0.12678 0.04685,-0.06339 0.04961,-0.237022 l 0.01929,-1.265038 q 0.01102,-0.611849 -0.129536,-0.774457 -0.137803,-0.165364 -0.278363,-0.327973 -0.137804,-0.165364 -0.724848,-0.16812 -0.548458,-0.0028 -0.870919,0.32246 -0.267339,-0.327973 -0.82131,-0.32246 -0.28112,0.0028 -0.507118,0.118511 -0.02756,-0.135048 -0.08268,-0.170877 -0.05512,-0.03859 -0.110243,-0.07441 -0.05512,-0.03583 -0.192925,-0.03583 z"
     id="text9"
     style="font-weight:bold;font-size:5.64444px;font-family:'Comic Relief';-inkscape-font-specification:'Comic Relief, Bold';stroke-width:0.264583"
     aria-label="Alarm" /><path
     d="m 38.564848,36.784874 -2.422589,-2.73127 q -0.104731,-0.121267 -0.432704,-0.115755 -0.162608,0.0028 -0.264583,0.06615 -0.101974,0.06615 -0.104731,0.173633 l -0.09371,3.728968 q -0.0028,0.135048 0.09095,0.212218 0.08819,0.07166 0.26734,0.07441 0.184657,0.0028 0.300412,-0.07166 0.124023,-0.07717 0.126779,-0.20395 l 0.06063,-2.692684 2.461174,2.767098 q 0.09646,0.107487 0.355534,0.115756 0.190169,0.0028 0.305924,-0.0689 0.115755,-0.07441 0.118511,-0.206706 l 0.08544,-3.717944 q 0.0028,-0.124024 -0.107486,-0.192925 -0.110243,-0.0689 -0.292144,-0.0689 -0.165365,0 -0.26734,0.06615 -0.110243,0.07166 -0.112999,0.173632 z m 3.591165,-0.05512 q 0.168121,-0.0248 0.214974,-0.08544 0.04685,-0.06339 0.09371,-0.124023 0.04685,-0.06063 0.05237,-0.248047 0.01654,-0.44924 -0.319705,-0.779969 -0.366557,-0.361046 -1.077625,-0.322461 -0.686262,0.03858 -1.063844,0.595312 -0.2949,0.43546 -0.2949,1.003211 0.0028,0.705555 0.476801,1.096918 0.396874,0.325217 0.994942,0.330729 0.777213,0.0055 1.198893,-0.385851 0.132291,-0.121267 0.148828,-0.195681 0.01929,-0.07441 0.03583,-0.148828 0.01929,-0.07441 -0.05237,-0.23151 -0.03859,-0.07993 -0.07717,-0.09646 -0.03858,-0.01929 -0.07717,-0.03583 -0.03858,-0.01929 -0.126779,0 -0.07993,0.01654 -0.118511,0.04685 -0.03583,0.03032 -0.07441,0.06339 -0.03859,0.03032 -0.14056,0.137804 -0.15434,0.162608 -0.683507,0.168121 -0.347265,0.0028 -0.628385,-0.223242 -0.192925,-0.157097 -0.225998,-0.308681 z m -1.526865,-0.650433 q 0.212218,-0.2949 0.57602,-0.2949 0.242534,0 0.460264,0.132291 0.115755,0.07166 0.168121,0.179145 l -1.32016,0.198438 q 0.07993,-0.162609 0.115755,-0.214974 z m 3.525019,-2.439126 q -0.173633,0 -0.225998,0.05237 -0.05236,0.04961 -0.104731,0.101975 -0.05237,0.04961 -0.05512,0.21773 L 43.738,35.200131 q -0.267339,0.0028 -0.493337,0.0028 -0.154341,0 -0.198438,0.05512 -0.0441,0.05237 -0.09095,0.107487 -0.0441,0.05237 -0.0441,0.23151 0,0.170876 0.08544,0.281119 0.08268,0.107487 0.225998,0.107487 h 0.496093 l -0.04961,1.821765 q -0.0028,0.162609 0.09646,0.26734 0.09922,0.118511 0.278363,0.121267 0.198437,0.0028 0.316949,-0.107487 0.118511,-0.101975 0.121267,-0.272851 l 0.0441,-1.830034 h 0.457508 q 0.170877,0 0.223242,-0.05237 0.05512,-0.05512 0.107487,-0.107487 0.05237,-0.05237 0.05237,-0.146072 0,-0.09371 0,-0.187413 0,-0.09371 -0.05512,-0.146072 -0.05512,-0.05237 -0.110243,-0.101975 -0.05512,-0.05237 -0.234266,-0.04961 l -0.418923,0.0028 q 0.01654,-0.534678 0.02205,-1.165819 0,-0.179145 -0.05788,-0.231511 -0.05512,-0.05512 -0.112999,-0.107487 -0.05788,-0.05237 -0.245291,-0.05237 z m 3.599433,1.681205 q -0.101975,-0.126779 -0.336241,-0.126779 -0.297656,0 -0.43546,0.443728 l -0.435459,1.400086 -0.225999,-1.386306 q -0.03307,-0.198437 -0.162608,-0.352777 -0.110243,-0.129536 -0.322461,-0.09922 -0.165364,0.02205 -0.237022,0.159852 -0.07166,0.132292 -0.0441,0.300413 0.0028,0.0083 0.0083,0.03307 l 0.394119,2.113909 q 0.03583,0.181901 0.151584,0.292144 0.118511,0.115755 0.314192,0.115755 0.201194,0 0.322461,-0.110243 0.129535,-0.118511 0.192925,-0.303168 l 0.380338,-1.110698 0.19017,1.091406 q 0.03307,0.195681 0.165364,0.316948 0.124023,0.115755 0.350021,0.115755 0.170877,0 0.292144,-0.110243 0.137804,-0.126779 0.190169,-0.281119 l 0.738628,-2.116665 q 0.03307,-0.104731 0.03307,-0.151584 0.0028,-0.04685 0.0028,-0.09371 0,-0.04685 -0.05237,-0.124023 -0.05788,-0.08544 -0.15434,-0.118511 -0.07717,-0.03032 -0.225998,-0.02205 -0.292144,0.01654 -0.413412,0.440972 l -0.374826,1.314647 -0.225998,-1.380793 q -0.03307,-0.192925 -0.07993,-0.250803 z m 3.147437,0.551215 q 0.234267,-0.0055 0.297656,0.08544 0.06339,0.09095 0.124024,0.1819 0.06339,0.09095 0.07166,0.520898 0,0.03032 0,0.06339 -0.0028,0.474045 -0.20395,0.675238 -0.184657,0.181901 -0.451996,0.181901 -0.225998,0 -0.407899,-0.181901 -0.181901,-0.1819 -0.181901,-0.567751 0.0028,-0.407899 0.272851,-0.755164 0.154341,-0.195682 0.479557,-0.20395 z m -1.102429,-0.203949 q -0.35829,0.479557 -0.35829,1.099673 0,0.658702 0.305924,1.028016 0.347266,0.413411 0.931553,0.416167 0.788238,0.0055 1.124479,-0.427191 0.292143,-0.355534 0.2949,-1.016992 0.0028,-0.760676 -0.137804,-0.964626 -0.14056,-0.203949 -0.283876,-0.407899 -0.14056,-0.203949 -0.788237,-0.209461 -0.705555,-0.0055 -1.088649,0.482313 z m 3.161216,-0.606337 q -0.159852,0 -0.259071,0.06615 -0.09922,0.07166 -0.101975,0.190169 l -0.06063,2.571418 q -0.0028,0.148828 0.08544,0.228754 0.07993,0.07441 0.253559,0.07717 0.179145,0.0028 0.286632,-0.07441 0.126779,-0.09095 0.132291,-0.220486 l 0.05237,-1.670181 q 0.278363,-0.181901 0.496093,-0.225998 0.278363,-0.05788 0.479557,0.0689 0.15434,0.09646 0.190169,0.107487 0.09646,0.02756 0.181901,-0.01654 0.08819,-0.04685 0.148828,-0.173633 0.02205,-0.04134 0.06615,-0.173632 0.09922,-0.283876 -0.383095,-0.507118 -0.250802,-0.118511 -0.642165,-0.112999 -0.23151,0.0055 -0.52641,0.132292 -0.03307,-0.146072 -0.15434,-0.214974 -0.09371,-0.05237 -0.245291,-0.05237 z m 2.736782,-1.422134 q -0.168121,0.0028 -0.220486,0.05237 -0.04961,0.04961 -0.101975,0.101975 -0.04961,0.04961 -0.05237,0.21773 l -0.09095,3.778578 q -0.0055,0.173633 0.08819,0.283876 0.09922,0.118511 0.267339,0.121267 0.181901,0.0028 0.303168,-0.107487 0.129535,-0.118511 0.135048,-0.303168 l 0.01929,-0.595312 0.413411,-0.363802 0.768945,1.138259 q 0.110243,0.157096 0.278363,0.209461 0.148828,0.0441 0.308681,-0.05788 0.04134,-0.02756 0.08544,-0.07166 0.08544,-0.08544 0.09922,-0.176389 0.01378,-0.09922 -0.02481,-0.198437 -0.03032,-0.07993 -0.121267,-0.20395 l -0.824066,-1.132746 0.705555,-0.631141 q 0.146072,-0.129536 0.159852,-0.261827 0.01654,-0.143316 -0.107487,-0.278364 -0.08544,-0.09646 -0.14056,-0.104731 -0.05512,-0.01102 -0.112999,-0.01929 -0.05512,-0.0083 -0.165364,0.03858 -0.176389,0.07717 -0.253559,0.148828 l -1.041796,0.972894 0.05512,-2.166274 q 0.0055,-0.179145 -0.121267,-0.286632 -0.124023,-0.104731 -0.30868,-0.104731 z"
     id="text9-3"
     style="font-weight:bold;font-size:5.64444px;font-family:'Comic Relief';-inkscape-font-specification:'Comic Relief, Bold';stroke-width:0.264583"
     aria-label="Network" /><path
     d="m 35.068092,51.634442 q 0.107487,0.413411 0.451996,0.600824 0.361046,0.198437 0.978407,0.190169 0.556727,-0.0083 0.700043,0.03307 0.143315,0.03858 0.283875,0.07993 0.143316,0.03858 0.184657,0.168121 0.09646,0.2949 -0.259071,0.584287 -0.179145,0.146072 -0.727603,0.228755 -0.303169,0.0441 -0.675239,-0.02756 -0.270095,-0.05237 -0.438215,-0.184657 -0.2949,-0.23151 -0.509874,-0.176389 -0.107487,0.02756 -0.14056,0.0689 -0.03032,0.03859 -0.06339,0.07993 -0.03032,0.04134 -0.04685,0.151584 -0.03032,0.212218 0.237022,0.43546 0.181901,0.146072 0.407899,0.237022 0.383095,0.15434 0.96187,0.151584 0.74414,-0.0028 1.314648,-0.278363 0.74414,-0.363802 0.788237,-1.107942 0.02756,-0.465777 -0.355534,-0.83509 -0.30868,-0.297657 -1.016991,-0.316949 -0.73036,-0.01929 -0.909505,-0.04134 -0.198437,-0.02481 -0.237022,-0.07166 -0.03859,-0.04685 -0.07717,-0.09095 -0.03858,-0.04685 -0.01654,-0.24529 0.02205,-0.184657 0.270095,-0.347265 0.239778,-0.159853 0.708311,-0.184657 0.303168,-0.01654 0.705555,0.115755 0.112999,0.03858 0.192925,0.05788 0.07717,0.01654 0.115755,0.01654 0.04134,0 0.07993,0.0028 0.03859,0 0.09922,-0.02756 0.104731,-0.04961 0.132292,-0.08819 0.03032,-0.04134 0.05788,-0.07993 0.03032,-0.04134 0.02481,-0.140559 -0.0055,-0.132292 -0.129536,-0.231511 -0.137803,-0.110243 -0.355533,-0.198437 -0.325217,-0.132291 -0.815798,-0.148828 -0.49885,-0.01654 -1.011479,0.184657 -0.531923,0.212218 -0.757921,0.556727 -0.272851,0.421679 -0.151584,0.879188 z m 6.063364,1.157551 q 0.16812,-0.02481 0.214973,-0.08544 0.04685,-0.06339 0.09371,-0.124024 0.04685,-0.06063 0.05236,-0.248046 0.01654,-0.44924 -0.319704,-0.779969 -0.366558,-0.361046 -1.077625,-0.322461 -0.686263,0.03858 -1.063845,0.595312 -0.2949,0.43546 -0.2949,1.003211 0.0028,0.705555 0.476801,1.096918 0.396874,0.325216 0.994943,0.330728 0.777213,0.0055 1.198892,-0.38585 0.132291,-0.121267 0.148828,-0.195681 0.01929,-0.07441 0.03583,-0.148828 0.01929,-0.07441 -0.05237,-0.23151 -0.03859,-0.07993 -0.07717,-0.09646 -0.03858,-0.01929 -0.07717,-0.03583 -0.03858,-0.01929 -0.126779,0 -0.07993,0.01654 -0.118511,0.04685 -0.03583,0.03032 -0.07441,0.06339 -0.03858,0.03032 -0.14056,0.137804 -0.15434,0.162608 -0.683506,0.16812 -0.347266,0.0028 -0.628385,-0.223242 -0.192926,-0.157096 -0.225999,-0.30868 z M 39.60459,52.141559 q 0.212218,-0.2949 0.57602,-0.2949 0.242534,0 0.460264,0.132292 0.115755,0.07166 0.168121,0.179145 l -1.32016,0.198437 q 0.07993,-0.162608 0.115755,-0.214974 z m 2.753318,-1.016991 q -0.157096,0 -0.203949,0.04961 -0.04685,0.04961 -0.09646,0.101975 -0.04685,0.04961 -0.05237,0.198437 l -0.05788,2.37298 q -0.0028,0.168121 0.08268,0.275608 0.09371,0.118511 0.248047,0.121267 0.170877,0.0028 0.283876,-0.107487 0.121267,-0.118511 0.126779,-0.300412 l 0.04685,-1.477256 q 0.424436,-0.366558 0.771701,-0.344509 0.184657,0.01102 0.23151,0.08819 0.04685,0.07717 0.09371,0.154341 0.04685,0.07717 0.03583,0.429947 l -0.03583,1.163063 q -0.0055,0.184657 0.0441,0.245291 0.05237,0.06063 0.101975,0.121267 0.05237,0.06063 0.206705,0.06339 0.03032,0 0.06339,-0.0028 0.165365,-0.01654 0.209462,-0.08268 0.0441,-0.06339 0.08819,-0.12678 0.0441,-0.06339 0.04685,-0.237022 l 0.02205,-1.273306 q 0.0083,-0.611849 -0.126779,-0.774457 -0.135048,-0.165365 -0.270096,-0.327973 -0.135047,-0.165365 -0.746896,-0.168121 -0.407899,0 -0.716579,0.159853 -0.01654,-0.146072 -0.137804,-0.237023 -0.112999,-0.08544 -0.259071,-0.08544 z m 3.053731,2.293054 q -0.07717,-0.05237 -0.21773,-0.06339 -0.112999,-0.0083 -0.212218,0.05512 -0.165365,0.101974 -0.151584,0.341753 0.01378,0.203949 0.234266,0.341753 0.201194,0.124023 0.347266,0.151584 0.300412,0.05788 0.631141,0.05512 0.518142,-0.0028 0.815798,-0.206706 0.344509,-0.237022 0.388606,-0.614605 0.04134,-0.369314 -0.234266,-0.713823 -0.12678,-0.157096 -0.43546,-0.289388 -0.239778,-0.10473 -0.548459,-0.132291 -0.101975,-0.0083 -0.137804,-0.01929 -0.03583,-0.01102 -0.07166,-0.02205 -0.03583,-0.01102 -0.04685,-0.01929 -0.01102,-0.0083 -0.0248,-0.01378 -0.01103,-0.0083 -0.01654,-0.02205 -0.03859,-0.09646 0.06063,-0.198437 0.112999,-0.115755 0.429947,-0.148828 0.245291,-0.02205 0.402387,0.07441 0.2949,0.181901 0.42168,0.14056 0.132291,-0.04134 0.195681,-0.201194 0.06063,-0.151584 -0.0083,-0.297656 -0.07441,-0.15434 -0.311437,-0.297656 -0.228754,-0.137804 -0.810286,-0.107487 -0.410655,0.02205 -0.722091,0.234267 -0.228754,0.157096 -0.350021,0.496093 -0.110243,0.300412 -0.0441,0.581532 0.09371,0.402387 0.71658,0.485069 0.286631,0.03858 0.435459,0.08268 0.170877,0.05237 0.228755,0.104731 0.151584,0.146072 0.10473,0.239778 -0.04134,0.08268 -0.206705,0.09922 -0.270095,0.02756 -0.465777,0.01654 -0.220486,-0.01378 -0.396874,-0.132291 z m 3.646286,-1.482768 q 0.234267,-0.0055 0.297656,0.08544 0.06339,0.09095 0.124024,0.181901 0.06339,0.09095 0.07166,0.520898 0,0.03032 0,0.06339 -0.0028,0.474045 -0.20395,0.675238 -0.184657,0.181901 -0.451996,0.181901 -0.225998,0 -0.407899,-0.181901 -0.181901,-0.181901 -0.181901,-0.567751 0.0028,-0.407899 0.272851,-0.755165 0.154341,-0.195681 0.479557,-0.203949 z m -1.102429,-0.20395 q -0.35829,0.479557 -0.35829,1.099674 0,0.658702 0.305924,1.028016 0.347266,0.413411 0.931553,0.416167 0.788238,0.0055 1.124479,-0.427192 0.292143,-0.355533 0.2949,-1.016991 0.0028,-0.760677 -0.137804,-0.964626 -0.14056,-0.20395 -0.283876,-0.407899 -0.14056,-0.20395 -0.788237,-0.209462 -0.705555,-0.0055 -1.088649,0.482313 z m 3.161217,-0.606336 q -0.159852,0 -0.259071,0.06615 -0.09922,0.07166 -0.101975,0.190169 l -0.06063,2.571417 q -0.0028,0.148828 0.08544,0.228754 0.07993,0.07441 0.253559,0.07717 0.179145,0.0028 0.286632,-0.07441 0.126779,-0.09095 0.132291,-0.220485 l 0.05237,-1.670181 q 0.278363,-0.181901 0.496093,-0.225999 0.278363,-0.05788 0.479557,0.0689 0.15434,0.09646 0.190169,0.107487 0.09646,0.02756 0.181901,-0.01654 0.08819,-0.04685 0.148828,-0.173633 0.02205,-0.04134 0.06615,-0.173633 0.09922,-0.283875 -0.383095,-0.507117 -0.250802,-0.118512 -0.642165,-0.112999 -0.23151,0.0055 -0.52641,0.132291 -0.03307,-0.146072 -0.15434,-0.214974 -0.09371,-0.05237 -0.245291,-0.05237 z m 6.548432,-1.008723 q -0.05788,-0.101975 -0.228754,-0.129536 -0.242535,-0.03858 -0.493338,0.181901 l -0.553971,0.485069 q -0.124023,0.104731 -0.143315,0.239779 -0.01929,0.132291 0.07717,0.259071 0.104731,0.132291 0.270095,0.143316 0.187413,0.01378 0.275607,-0.08819 0.0441,-0.05237 0.08819,-0.101975 l 0.04961,-0.05512 -0.0083,2.480467 h -0.352778 q -0.176388,0 -0.228754,0.05237 -0.05237,0.05237 -0.107487,0.107487 -0.05237,0.05237 -0.05512,0.23151 0,0.162609 0.04961,0.209462 0.05237,0.04685 0.101975,0.09371 0.04961,0.04685 0.212218,0.04685 h 1.276062 q 0.176389,0 0.23151,-0.04961 0.05512,-0.04685 0.107487,-0.09371 0.05512,-0.04961 0.05512,-0.135048 0,-0.08544 0,-0.170876 0,-0.08544 -0.110243,-0.190169 -0.112999,-0.09922 -0.292144,-0.09922 H 57.70373 l 0.01654,-3.174998 q 0,-0.143316 -0.05512,-0.242534 z"
     id="text9-3-5"
     style="font-weight:bold;font-size:5.64444px;font-family:'Comic Relief';-inkscape-font-specification:'Comic Relief, Bold';stroke-width:0.264583"
     aria-label="Sensor 1" /><path
     d="m 108.90128,43.821809 q 0.094,0.361735 0.3955,0.525722 0.31592,0.173632 0.85611,0.166398 0.48713,-0.0072 0.61253,0.02894 0.12541,0.03376 0.2484,0.06994 0.1254,0.03376 0.16157,0.147106 0.0844,0.258037 -0.22669,0.511252 -0.15675,0.127813 -0.63665,0.20016 -0.26527,0.03858 -0.59083,-0.02412 -0.23634,-0.04582 -0.38344,-0.161575 -0.25804,-0.202571 -0.44614,-0.15434 -0.094,0.02412 -0.12299,0.06029 -0.0265,0.03376 -0.0555,0.06994 -0.0265,0.03617 -0.041,0.132636 -0.0265,0.185691 0.2074,0.381027 0.15916,0.127814 0.35691,0.207395 0.33521,0.135048 0.84164,0.132636 0.65112,-0.0024 1.15032,-0.243568 0.65112,-0.318327 0.6897,-0.96945 0.0241,-0.407555 -0.31109,-0.730705 -0.27009,-0.260449 -0.88987,-0.27733 -0.63906,-0.01688 -0.79581,-0.03617 -0.17364,-0.0217 -0.2074,-0.0627 -0.0338,-0.041 -0.0675,-0.07958 -0.0338,-0.041 -0.0145,-0.21463 0.0193,-0.161575 0.23633,-0.303857 0.20981,-0.139871 0.61977,-0.161575 0.26528,-0.01447 0.61737,0.101286 0.0989,0.03376 0.16881,0.05064 0.0675,0.01447 0.10128,0.01447 0.0362,0 0.0699,0.0024 0.0338,0 0.0868,-0.02412 0.0916,-0.04341 0.11576,-0.07717 0.0265,-0.03617 0.0506,-0.06994 0.0265,-0.03617 0.0217,-0.12299 -0.005,-0.115755 -0.11335,-0.202571 -0.12058,-0.09646 -0.31109,-0.173633 -0.28457,-0.115755 -0.71382,-0.130225 -0.4365,-0.01447 -0.88505,0.161575 -0.46543,0.185691 -0.66318,0.487137 -0.23875,0.36897 -0.13264,0.76929 z m 5.30545,1.012858 q 0.14711,-0.0217 0.1881,-0.07476 0.041,-0.05547 0.082,-0.108521 0.041,-0.05305 0.0458,-0.217041 0.0145,-0.393085 -0.27975,-0.682474 -0.32073,-0.315915 -0.94292,-0.282153 -0.60048,0.03376 -0.93086,0.520899 -0.25804,0.381027 -0.25804,0.87781 0.002,0.617361 0.4172,0.959804 0.34727,0.284565 0.87058,0.289388 0.68006,0.0048 1.04903,-0.337619 0.11575,-0.106109 0.13022,-0.171222 0.0169,-0.06511 0.0314,-0.130224 0.0169,-0.06511 -0.0458,-0.202572 -0.0338,-0.06994 -0.0675,-0.08441 -0.0338,-0.01688 -0.0675,-0.03135 -0.0338,-0.01688 -0.11094,0 -0.0699,0.01447 -0.10369,0.041 -0.0314,0.02653 -0.0651,0.05547 -0.0338,0.02653 -0.12299,0.120579 -0.13504,0.142282 -0.59806,0.147105 -0.30386,0.0024 -0.54984,-0.195336 -0.16881,-0.13746 -0.19775,-0.270096 z m -1.33601,-0.56913 q 0.18569,-0.258037 0.50402,-0.258037 0.21222,0 0.40273,0.115755 0.10129,0.0627 0.14711,0.156752 l -1.15514,0.173633 q 0.0699,-0.142283 0.10128,-0.188103 z m 3.0844,-2.134237 q -0.15193,0 -0.19775,0.04582 -0.0458,0.04341 -0.0916,0.08923 -0.0458,0.04341 -0.0482,0.190514 l -0.0265,1.039385 q -0.23392,0.0024 -0.43167,0.0024 -0.13505,0 -0.17363,0.04823 -0.0386,0.04582 -0.0796,0.09405 -0.0386,0.04582 -0.0386,0.202572 0,0.149517 0.0748,0.24598 0.0724,0.09405 0.19775,0.09405 h 0.43408 l -0.0434,1.594046 q -0.002,0.142283 0.0844,0.233922 0.0868,0.103697 0.24356,0.106109 0.17364,0.0024 0.27734,-0.09405 0.10369,-0.08923 0.1061,-0.238745 l 0.0386,-1.601281 h 0.40032 q 0.14952,0 0.19534,-0.04582 0.0482,-0.04823 0.094,-0.09405 0.0458,-0.04582 0.0458,-0.127813 0,-0.08199 0,-0.163987 0,-0.08199 -0.0482,-0.127813 -0.0482,-0.04582 -0.0965,-0.08923 -0.0482,-0.04582 -0.20498,-0.04341 l -0.36656,0.0024 q 0.0145,-0.467844 0.0193,-1.020093 0,-0.156752 -0.0506,-0.202572 -0.0482,-0.04823 -0.0989,-0.09405 -0.0506,-0.04582 -0.21463,-0.04582 z m 3.17362,4.065903 q 0.13505,0 0.17604,-0.03135 0.041,-0.02894 0.082,-0.05788 0.041,-0.02894 0.0434,-0.135048 l 0.0555,-2.247581 q 0.002,-0.130224 -0.0748,-0.202571 -0.0699,-0.06511 -0.21945,-0.06752 -0.15434,0 -0.24598,0.06752 -0.10852,0.07717 -0.11093,0.192925 l -0.0314,1.21543 q -0.005,0.115755 -0.0796,0.233922 -0.10852,0.173633 -0.27974,0.207395 -0.26045,0.05547 -0.39068,-0.04823 -0.0796,-0.0627 -0.10611,-0.139871 -0.0458,-0.127813 -0.0434,-0.402731 l 0.007,-1.051444 q 0,-0.127813 -0.0892,-0.204983 -0.0748,-0.06752 -0.22186,-0.06752 -0.0217,0 -0.0458,0.0024 -0.15193,0.01206 -0.22187,0.08682 -0.082,0.08199 -0.082,0.224276 l -0.007,1.18408 q -0.005,0.545014 0.23152,0.824756 0.22909,0.274918 0.76929,0.274918 0.26768,0 0.53777,-0.127813 0.0169,0.149517 0.12058,0.217041 0.082,0.05306 0.22669,0.05306 z m 1.24919,1.104498 q 0.0965,-0.08923 0.0989,-0.238746 l 0.0289,-1.102086 q 0.20739,0.07717 0.54019,0.05306 0.56189,-0.03617 0.8971,-0.434082 0.28939,-0.352089 0.28698,-0.986332 0,-0.453374 -0.32074,-0.790994 -0.34003,-0.347265 -0.86093,-0.349677 -0.3955,-0.0024 -0.58119,0.05788 -0.0916,-0.106109 -0.21945,-0.108521 -0.15434,-0.0024 -0.24839,0.09405 -0.094,0.09405 -0.0965,0.250803 l -0.0723,3.299024 q -0.002,0.156752 0.0434,0.202572 0.0458,0.04823 0.0892,0.09405 0.0458,0.04823 0.19534,0.04823 0.13746,0 0.21945,-0.08923 z m 0.61978,-3.260439 q 0.32315,0.04341 0.44131,0.188102 0.17846,0.207395 0.17605,0.342442 0,0.132637 -0.002,0.267684 -0.002,0.132637 -0.15675,0.33762 -0.17363,0.23151 -0.51125,0.253214 -0.26768,0.01688 -0.43408,-0.156752 l 0.0314,-1.104497 q 0.21463,-0.161575 0.45579,-0.127813 z"
     id="text9-3-5-3"
     style="font-weight:bold;font-size:4.93889px;font-family:'Comic Relief';-inkscape-font-specification:'Comic Relief, Bold';stroke-width:0.264583"
     aria-label="Setup" /><path
     d="m 109.61099,81.063454 q -0.29904,0 -0.46543,0.441316 l -1.05868,2.823946 q -0.0362,0.115755 -0.0362,0.166398 0,0.04823 -0.002,0.09887 0,0.05064 0.0555,0.127813 0.0555,0.08199 0.16157,0.115755 0.14711,0.04341 0.26528,-0.04823 0.12058,-0.09164 0.1881,-0.258038 l 0.36656,-0.897103 h 1.03697 l 0.36656,0.897103 q 0.0603,0.151929 0.20257,0.26045 0.11817,0.09164 0.26527,0.04582 0.0965,-0.03135 0.15193,-0.103697 0.0555,-0.06994 0.0579,-0.113344 0.005,-0.04582 0.007,-0.08923 0.002,-0.04582 -0.0241,-0.151928 -0.01,-0.03135 -0.0169,-0.05064 L 110.0716,81.50477 q -0.16399,-0.441316 -0.46061,-0.441316 z m 0.25321,1.873787 -0.53054,0.0048 0.26768,-0.709001 z m 2.28135,-2.069124 q -0.1447,0.0024 -0.18811,0.04823 -0.0434,0.04341 -0.0892,0.08923 -0.0434,0.04341 -0.0458,0.188102 l -0.082,3.308671 q -0.002,0.149517 0.0796,0.245979 0.082,0.103698 0.23393,0.106109 0.16639,0.0024 0.26527,-0.09405 0.0989,-0.09405 0.10128,-0.250803 l 0.0748,-3.299024 q 0.002,-0.156752 -0.0458,-0.202572 -0.0458,-0.04823 -0.094,-0.09405 -0.0482,-0.04582 -0.2098,-0.04582 z m 2.63343,3.807864 q 0.0555,0.130225 0.1664,0.18328 0.1061,0.05547 0.24115,0.02411 0.11335,-0.02411 0.16881,-0.113343 0.0555,-0.08199 0.0338,-0.197749 -0.0169,-0.09164 -0.0868,-0.212218 -0.11335,-0.20016 -0.10611,-0.709001 0.0121,-0.663181 0.0603,-0.933276 0.0289,-0.173633 -0.01,-0.233922 -0.0362,-0.0627 -0.0748,-0.12299 -0.0362,-0.06029 -0.20016,-0.09887 -0.13987,-0.03617 -0.24839,0.01447 -0.69212,-0.171221 -1.31189,0.284565 -0.49196,0.412378 -0.48473,1.157552 0.002,0.56913 0.27975,0.868164 0.27974,0.299035 0.88745,0.299035 0.2291,-0.0024 0.68489,-0.209807 z m -0.79823,-0.32315 q -0.21222,-0.01447 -0.26527,-0.09164 -0.0531,-0.07958 -0.10611,-0.156752 -0.0531,-0.07717 -0.0579,-0.419613 0.0217,-0.516075 0.42685,-0.798229 0.094,-0.06752 0.26045,-0.106108 0.1881,-0.04341 0.36414,0.03617 -0.0916,0.412378 -0.0145,1.331185 -0.17604,0.135048 -0.24115,0.156752 -0.16881,0.06029 -0.36656,0.04823 z m 2.13182,-2.240346 q -0.13987,0 -0.22668,0.05788 -0.0868,0.0627 -0.0892,0.166398 l -0.0531,2.249992 q -0.002,0.130225 0.0748,0.200161 0.0699,0.06511 0.22187,0.06752 0.15675,0.0024 0.2508,-0.06511 0.11093,-0.07958 0.11576,-0.192925 l 0.0458,-1.46141 q 0.24356,-0.159164 0.43408,-0.197749 0.24357,-0.05064 0.41961,0.06029 0.13505,0.0844 0.1664,0.09405 0.0844,0.02411 0.15916,-0.01447 0.0772,-0.041 0.13023,-0.151928 0.0193,-0.03617 0.0579,-0.151929 0.0868,-0.248392 -0.3352,-0.443729 -0.21946,-0.103697 -0.5619,-0.09887 -0.20257,0.0048 -0.46061,0.115755 -0.0289,-0.127813 -0.13505,-0.188102 -0.082,-0.04582 -0.21463,-0.04582 z m 2.31752,0 q -0.13987,0 -0.18328,0.04341 -0.041,0.04341 -0.0844,0.08923 -0.0434,0.04341 -0.0482,0.173632 l -0.0531,2.069125 q -0.002,0.147106 0.0748,0.241157 0.0868,0.103697 0.22428,0.106109 0.15434,0.0024 0.24839,-0.09405 0.10128,-0.103698 0.10611,-0.262861 l 0.041,-1.172022 q 0.0627,-0.219452 0.11817,-0.265272 0.0555,-0.04823 0.11093,-0.09405 0.0555,-0.04582 0.23151,-0.041 0.0651,0.0024 0.0892,0.01688 0.0241,0.01447 0.0458,0.02894 0.0241,0.01447 0.0434,0.04823 0.0193,0.03135 0.0386,0.06511 0.0193,0.03376 0.0386,0.151929 0.0193,0.12299 0.0145,0.284565 l -0.0265,0.954981 q -0.002,0.159163 0.0796,0.267684 0.082,0.106109 0.23634,0.10852 0.0265,0 0.053,-0.0024 0.15916,-0.01447 0.20257,-0.06994 0.0434,-0.05547 0.0868,-0.110932 0.0434,-0.05547 0.0482,-0.229099 l 0.0314,-1.082793 q 0.002,-0.09646 0.005,-0.115756 0.0724,-0.178456 0.13505,-0.217041 0.0627,-0.041 0.1254,-0.07958 0.0627,-0.041 0.26045,-0.03617 0.0651,0.0024 0.0892,0.01688 0.0265,0.01447 0.0506,0.03135 0.0265,0.01447 0.0458,0.04823 0.0217,0.03376 0.041,0.06994 0.0193,0.03376 0.0386,0.156752 0.0193,0.125402 0.0169,0.296623 l -0.0145,0.983919 q 0,0.163987 0.0844,0.267684 0.0796,0.103698 0.22669,0.106109 0.0241,0 0.0506,-0.0024 0.14952,-0.01447 0.19051,-0.07235 0.041,-0.05547 0.0796,-0.110932 0.041,-0.05547 0.0434,-0.207395 l 0.0169,-1.10691 q 0.01,-0.535368 -0.11335,-0.67765 -0.12058,-0.144694 -0.24357,-0.286977 -0.12057,-0.144694 -0.63424,-0.147105 -0.4799,-0.0024 -0.76205,0.282153 -0.23393,-0.286976 -0.71865,-0.282153 -0.24598,0.0024 -0.44373,0.103697 -0.0241,-0.118167 -0.0724,-0.149517 -0.0482,-0.03376 -0.0965,-0.06511 -0.0482,-0.03135 -0.16881,-0.03135 z"
     id="text9-3-5-3-7"
     style="font-weight:bold;font-size:4.93889px;font-family:'Comic Relief';-inkscape-font-specification:'Comic Relief, Bold';stroke-width:0.264583"
     aria-label="Alarm" /><path
     d="m 122.75876,75.865758 q 0.45338,0.02894 0.55707,0.135048 0.10611,0.106109 0.20981,0.214629 0.10611,0.106109 0.0989,0.535368 -0.0121,0.728293 -0.52813,1.302246 -0.26527,0.296623 -0.74035,0.296623 -0.49919,0 -0.78617,-0.274919 -0.24116,-0.23151 -0.24116,-0.636653 0,-0.774113 0.5619,-1.275719 0.36897,-0.327974 0.86816,-0.296623 z m -1.48794,-0.06994 q -0.61736,0.66077 -0.61977,1.647101 0.002,0.653535 0.35209,1.029739 0.49919,0.535368 1.35289,0.535368 0.8344,0 1.35048,-0.595657 0.56913,-0.658358 0.57154,-1.66157 0,-0.747586 -0.37138,-1.128614 -0.37862,-0.390673 -1.1672,-0.397908 -0.92604,-0.0096 -1.46865,0.571541 z m 3.6897,0.424436 q -0.13746,0 -0.17845,0.04341 -0.041,0.04341 -0.0844,0.08923 -0.041,0.04341 -0.0458,0.173633 l -0.0506,2.07636 q -0.002,0.147105 0.0724,0.241156 0.082,0.103698 0.21704,0.106109 0.14951,0.0024 0.24839,-0.09405 0.10611,-0.103697 0.11093,-0.262861 l 0.041,-1.2926 q 0.37138,-0.320738 0.67524,-0.301446 0.16157,0.0096 0.20257,0.07717 0.041,0.06752 0.082,0.135047 0.041,0.06752 0.0314,0.376205 l -0.0314,1.017681 q -0.005,0.161575 0.0386,0.21463 0.0458,0.05305 0.0892,0.106109 0.0458,0.05305 0.18087,0.05547 0.0265,0 0.0555,-0.0024 0.14469,-0.01447 0.18328,-0.07235 0.0386,-0.05547 0.0772,-0.110932 0.0386,-0.05547 0.041,-0.207395 l 0.0193,-1.114144 q 0.007,-0.535368 -0.11094,-0.67765 -0.11816,-0.144694 -0.23633,-0.286977 -0.11817,-0.144694 -0.65353,-0.147105 -0.35692,0 -0.62701,0.139871 -0.0145,-0.127814 -0.12058,-0.207395 -0.0989,-0.07476 -0.22669,-0.07476 z"
     id="text9-3-5-3-7-6"
     style="font-weight:bold;font-size:4.93889px;font-family:'Comic Relief';-inkscape-font-specification:'Comic Relief, Bold';stroke-width:0.264583"
     aria-label="On" /><path
     d="m 122.81174,38.130948 q 0.45337,0.02894 0.55707,0.135048 0.10611,0.106109 0.20981,0.214629 0.10611,0.106109 0.0989,0.535368 -0.0121,0.728293 -0.52813,1.302247 -0.26527,0.296622 -0.74035,0.296622 -0.4992,0 -0.78617,-0.274918 -0.24116,-0.231511 -0.24116,-0.636654 0,-0.774113 0.5619,-1.275719 0.36897,-0.327973 0.86816,-0.296623 z m -1.48794,-0.06994 q -0.61736,0.66077 -0.61977,1.647101 0.002,0.653535 0.35209,1.029739 0.49919,0.535368 1.35289,0.535368 0.8344,0 1.35048,-0.595657 0.56913,-0.658358 0.57154,-1.66157 0,-0.747586 -0.37138,-1.128613 -0.37862,-0.390674 -1.1672,-0.397909 -0.92604,-0.0096 -1.46865,0.571541 z m 3.6897,0.424436 q -0.13746,0 -0.17846,0.04341 -0.041,0.04341 -0.0844,0.08923 -0.041,0.04341 -0.0458,0.173632 l -0.0506,2.07636 q -0.002,0.147105 0.0723,0.241157 0.082,0.103697 0.21705,0.106109 0.14951,0.0024 0.24839,-0.09405 0.10611,-0.103697 0.11093,-0.26286 l 0.041,-1.292601 q 0.37138,-0.320738 0.67523,-0.301445 0.16158,0.0096 0.20258,0.07717 0.041,0.06752 0.082,0.135047 0.041,0.06752 0.0314,0.376205 l -0.0314,1.017681 q -0.005,0.161575 0.0386,0.21463 0.0458,0.05305 0.0892,0.106109 0.0458,0.05305 0.18087,0.05547 0.0265,0 0.0555,-0.0024 0.14469,-0.01447 0.18328,-0.07235 0.0386,-0.05547 0.0772,-0.110932 0.0386,-0.05547 0.041,-0.207395 l 0.0193,-1.114144 q 0.007,-0.535368 -0.11093,-0.67765 -0.11816,-0.144694 -0.23633,-0.286977 -0.11817,-0.144694 -0.65354,-0.147105 -0.35691,0 -0.627,0.139871 -0.0145,-0.127813 -0.12058,-0.207395 -0.0989,-0.07476 -0.22669,-0.07476 z"
     id="text9-3-5-3-7-6-9"
     style="font-weight:bold;font-size:4.93889px;font-family:'Comic Relief';-inkscape-font-specification:'Comic Relief, Bold';stroke-width:0.264583"
     aria-label="On" /><path
     d="m 121.69124,49.069875 q 0.45338,0.02894 0.55707,0.135047 0.10611,0.106109 0.20981,0.21463 0.10611,0.106109 0.0989,0.535368 -0.0121,0.728293 -0.52813,1.302246 -0.26527,0.296623 -0.74035,0.296623 -0.4992,0 -0.78617,-0.274919 -0.24116,-0.23151 -0.24116,-0.636653 0,-0.774114 0.5619,-1.27572 0.36897,-0.327973 0.86816,-0.296622 z m -1.48794,-0.06994 q -0.61736,0.66077 -0.61977,1.647101 0.002,0.653534 0.35209,1.029739 0.49919,0.535368 1.35289,0.535368 0.8344,0 1.35048,-0.595657 0.56913,-0.658358 0.57154,-1.66157 0,-0.747586 -0.37138,-1.128614 -0.37862,-0.390674 -1.1672,-0.397908 -0.92604,-0.0096 -1.46865,0.571541 z m 3.26285,0.868164 q -0.002,0.149518 0.0482,0.192926 0.0506,0.04341 0.0989,0.08682 0.0506,0.04341 0.21222,0.04341 h 0.30144 l -0.0362,1.647101 q -0.005,0.173633 0.0844,0.260449 0.0868,0.08682 0.19774,0.09164 0.12058,0.0048 0.23151,-0.09405 0.0989,-0.08923 0.10129,-0.248392 l 0.0289,-1.666393 h 0.55948 q 0.18328,0 0.23875,-0.041 0.0579,-0.041 0.11334,-0.07958 0.0555,-0.041 0.0555,-0.195337 0,-0.01447 0,-0.02894 -0.01,-0.147106 -0.0699,-0.183279 -0.0603,-0.03617 -0.12299,-0.07235 -0.0603,-0.03617 -0.24598,-0.03617 h -0.51607 q 0.002,-0.226687 0.0699,-0.402731 0.0603,-0.163987 0.17846,-0.226688 0.1254,-0.06511 0.33038,-0.04582 0.17122,0.01447 0.23151,-0.0217 0.0603,-0.03859 0.12058,-0.07476 0.0603,-0.03617 0.0868,-0.192926 0.0265,-0.142282 -0.0169,-0.190513 -0.0434,-0.04823 -0.0892,-0.09405 -0.0434,-0.04823 -0.20016,-0.07476 -0.10852,-0.01929 -0.26286,-0.01447 -0.46302,0.01447 -0.73553,0.327974 -0.28698,0.330384 -0.3135,1.010446 h -0.2918 q -0.17122,0 -0.22428,0.04341 -0.053,0.041 -0.10852,0.0844 -0.053,0.04341 -0.0555,0.195337 z m 2.51045,0 q -0.002,0.149518 0.0482,0.192926 0.0506,0.04341 0.0989,0.08682 0.0506,0.04341 0.21222,0.04341 h 0.30145 l -0.0362,1.647101 q -0.005,0.173633 0.0844,0.260449 0.0868,0.08682 0.19775,0.09164 0.12057,0.0048 0.23151,-0.09405 0.0989,-0.08923 0.10128,-0.248392 l 0.0289,-1.666393 h 0.55948 q 0.18328,0 0.23875,-0.041 0.0579,-0.041 0.11334,-0.07958 0.0555,-0.041 0.0555,-0.195337 0,-0.01447 0,-0.02894 -0.01,-0.147106 -0.0699,-0.183279 -0.0603,-0.03617 -0.12299,-0.07235 -0.0603,-0.03617 -0.24598,-0.03617 h -0.51607 q 0.002,-0.226687 0.0699,-0.402731 0.0603,-0.163987 0.17846,-0.226688 0.1254,-0.06511 0.33038,-0.04582 0.17123,0.01447 0.23151,-0.0217 0.0603,-0.03859 0.12058,-0.07476 0.0603,-0.03617 0.0868,-0.192926 0.0265,-0.142282 -0.0169,-0.190513 -0.0434,-0.04823 -0.0892,-0.09405 -0.0434,-0.04823 -0.20016,-0.07476 -0.10852,-0.01929 -0.26286,-0.01447 -0.46302,0.01447 -0.73553,0.327974 -0.28697,0.330384 -0.3135,1.010446 h -0.2918 q -0.17122,0 -0.22428,0.04341 -0.053,0.041 -0.10852,0.0844 -0.053,0.04341 -0.0555,0.195337 z"
     id="text9-3-5-3-7-6-9-5"
     style="font-weight:bold;font-size:4.93889px;font-family:'Comic Relief';-inkscape-font-specification:'Comic Relief, Bold';stroke-width:0.264583"
     aria-label="Off" /><path
     d="m 120.82459,86.975774 q 0.45337,0.02894 0.55707,0.135047 0.10611,0.106109 0.20981,0.21463 0.10611,0.106109 0.0989,0.535368 -0.0121,0.728293 -0.52813,1.302246 -0.26528,0.296623 -0.74035,0.296623 -0.4992,0 -0.78618,-0.274919 -0.24115,-0.23151 -0.24115,-0.636653 0,-0.774114 0.56189,-1.27572 0.36897,-0.327973 0.86817,-0.296622 z m -1.48794,-0.06994 q -0.61736,0.66077 -0.61977,1.647101 0.002,0.653534 0.35209,1.029739 0.49919,0.535368 1.35289,0.535368 0.8344,0 1.35047,-0.595657 0.56913,-0.658358 0.57155,-1.66157 0,-0.747586 -0.37139,-1.128614 -0.37861,-0.390674 -1.16719,-0.397908 -0.92605,-0.0096 -1.46865,0.571541 z m 3.26285,0.868164 q -0.002,0.149518 0.0482,0.192926 0.0507,0.04341 0.0989,0.08682 0.0506,0.04341 0.21221,0.04341 h 0.30145 l -0.0362,1.647101 q -0.005,0.173633 0.0844,0.260449 0.0868,0.08682 0.19775,0.09164 0.12058,0.0048 0.23151,-0.09405 0.0989,-0.08923 0.10129,-0.248392 l 0.0289,-1.666393 h 0.55948 q 0.18328,0 0.23874,-0.041 0.0579,-0.041 0.11335,-0.07958 0.0555,-0.041 0.0555,-0.195337 0,-0.01447 0,-0.02894 -0.01,-0.147106 -0.0699,-0.183279 -0.0603,-0.03617 -0.12299,-0.07235 -0.0603,-0.03617 -0.24598,-0.03617 h -0.51608 q 0.002,-0.226687 0.0699,-0.402731 0.0603,-0.163987 0.17845,-0.226688 0.12541,-0.06511 0.33039,-0.04582 0.17122,0.01447 0.23151,-0.02171 0.0603,-0.03858 0.12058,-0.07476 0.0603,-0.03617 0.0868,-0.192926 0.0265,-0.142282 -0.0169,-0.190513 -0.0434,-0.04823 -0.0892,-0.09405 -0.0434,-0.04823 -0.20016,-0.07476 -0.10852,-0.01929 -0.26287,-0.01447 -0.46302,0.01447 -0.73552,0.327973 -0.28698,0.330384 -0.31351,1.010446 h -0.2918 q -0.17122,0 -0.22427,0.04341 -0.0531,0.041 -0.10852,0.0844 -0.0531,0.04341 -0.0555,0.195337 z m 2.51044,0 q -0.002,0.149518 0.0482,0.192926 0.0507,0.04341 0.0989,0.08682 0.0506,0.04341 0.21222,0.04341 h 0.30144 l -0.0362,1.647101 q -0.005,0.173633 0.0844,0.260449 0.0868,0.08682 0.19775,0.09164 0.12058,0.0048 0.23151,-0.09405 0.0989,-0.08923 0.10129,-0.248392 l 0.0289,-1.666393 h 0.55948 q 0.18328,0 0.23875,-0.041 0.0579,-0.041 0.11334,-0.07958 0.0555,-0.041 0.0555,-0.195337 0,-0.01447 0,-0.02894 -0.01,-0.147106 -0.0699,-0.183279 -0.0603,-0.03617 -0.12299,-0.07235 -0.0603,-0.03617 -0.24598,-0.03617 h -0.51608 q 0.002,-0.226687 0.0699,-0.402731 0.0603,-0.163987 0.17846,-0.226688 0.1254,-0.06511 0.33038,-0.04582 0.17122,0.01447 0.23151,-0.02171 0.0603,-0.03858 0.12058,-0.07476 0.0603,-0.03617 0.0868,-0.192926 0.0265,-0.142282 -0.0169,-0.190513 -0.0434,-0.04823 -0.0892,-0.09405 -0.0434,-0.04823 -0.20016,-0.07476 -0.10852,-0.01929 -0.26286,-0.01447 -0.46302,0.01447 -0.73553,0.327973 -0.28698,0.330384 -0.31351,1.010446 h -0.2918 q -0.17122,0 -0.22427,0.04341 -0.0531,0.041 -0.10852,0.0844 -0.0531,0.04341 -0.0555,0.195337 z"
     id="text9-3-5-3-7-6-9-5-7"
     style="font-weight:bold;font-size:4.93889px;font-family:'Comic Relief';-inkscape-font-specification:'Comic Relief, Bold';stroke-width:0.264583"
     aria-label="Off" /><path
     d="m 35.937252,65.862046 q 0.107487,0.413411 0.451996,0.600824 0.361046,0.198437 0.978406,0.190169 0.556727,-0.0083 0.700043,0.03307 0.143316,0.03859 0.283876,0.07993 0.143316,0.03859 0.184657,0.168121 0.09646,0.2949 -0.259071,0.584287 -0.179145,0.146072 -0.727604,0.228754 -0.303168,0.0441 -0.675238,-0.02756 -0.270095,-0.05237 -0.438216,-0.184657 -0.2949,-0.23151 -0.509874,-0.176389 -0.107486,0.02756 -0.140559,0.0689 -0.03032,0.03858 -0.06339,0.07993 -0.03032,0.04134 -0.04685,0.151584 -0.03032,0.212218 0.237022,0.43546 0.181901,0.146072 0.407899,0.237022 0.383094,0.15434 0.96187,0.151584 0.74414,-0.0028 1.314647,-0.278363 0.744141,-0.363802 0.788238,-1.107942 0.02756,-0.465777 -0.355534,-0.835091 -0.30868,-0.297656 -1.016991,-0.316948 -0.73036,-0.01929 -0.909505,-0.04134 -0.198437,-0.02481 -0.237022,-0.07166 -0.03858,-0.04685 -0.07717,-0.09095 -0.03859,-0.04685 -0.01654,-0.24529 0.02205,-0.184657 0.270096,-0.347266 0.239778,-0.159852 0.708311,-0.184657 0.303168,-0.01654 0.705555,0.115756 0.112999,0.03859 0.192925,0.05788 0.07717,0.01654 0.115755,0.01654 0.04134,0 0.07993,0.0028 0.03859,0 0.09922,-0.02756 0.104731,-0.04961 0.132291,-0.08819 0.03032,-0.04134 0.05788,-0.07993 0.03032,-0.04134 0.02481,-0.140559 -0.0055,-0.132292 -0.129536,-0.231511 -0.137804,-0.110243 -0.355533,-0.198437 -0.325217,-0.132292 -0.815798,-0.148828 -0.49885,-0.01654 -1.01148,0.184657 -0.531922,0.212218 -0.75792,0.556727 -0.272852,0.421679 -0.151584,0.879188 z m 6.063363,1.157551 q 0.168121,-0.02481 0.214974,-0.08544 0.04685,-0.06339 0.09371,-0.124024 0.04685,-0.06063 0.05236,-0.248046 0.01654,-0.449241 -0.319705,-0.779969 -0.366558,-0.361046 -1.077625,-0.322461 -0.686262,0.03858 -1.063844,0.595312 -0.2949,0.43546 -0.2949,1.003211 0.0028,0.705555 0.4768,1.096917 0.396875,0.325217 0.994943,0.330729 0.777213,0.0055 1.198893,-0.38585 0.132291,-0.121267 0.148828,-0.195681 0.01929,-0.07441 0.03583,-0.148828 0.01929,-0.07441 -0.05237,-0.231511 -0.03858,-0.07993 -0.07717,-0.09646 -0.03859,-0.01929 -0.07717,-0.03583 -0.03858,-0.01929 -0.126779,0 -0.07993,0.01654 -0.118512,0.04685 -0.03583,0.03032 -0.07441,0.06339 -0.03858,0.03032 -0.140559,0.137804 -0.154341,0.162608 -0.683507,0.16812 -0.347265,0.0028 -0.628385,-0.223242 -0.192925,-0.157096 -0.225998,-0.30868 z M 40.47375,66.369163 q 0.212218,-0.2949 0.57602,-0.2949 0.242534,0 0.460264,0.132292 0.115755,0.07166 0.168121,0.179145 l -1.32016,0.198437 q 0.07993,-0.162608 0.115755,-0.214974 z m 2.753318,-1.016991 q -0.157096,0 -0.20395,0.04961 -0.04685,0.04961 -0.09646,0.101975 -0.04685,0.04961 -0.05237,0.198437 l -0.05788,2.37298 q -0.0028,0.168121 0.08268,0.275608 0.09371,0.118511 0.248047,0.121267 0.170876,0.0028 0.283875,-0.107487 0.121268,-0.118511 0.12678,-0.300412 l 0.04685,-1.477256 q 0.424436,-0.366558 0.771701,-0.344509 0.184657,0.01102 0.23151,0.08819 0.04685,0.07717 0.09371,0.15434 0.04685,0.07717 0.03583,0.429948 l -0.03583,1.163063 q -0.0055,0.184657 0.0441,0.245291 0.05236,0.06063 0.101975,0.121267 0.05237,0.06063 0.206705,0.06339 0.03032,0 0.06339,-0.0028 0.165364,-0.01654 0.209462,-0.08268 0.0441,-0.06339 0.08819,-0.12678 0.0441,-0.06339 0.04685,-0.237022 l 0.02205,-1.273306 q 0.0083,-0.611849 -0.12678,-0.774457 -0.135047,-0.165365 -0.270095,-0.327973 -0.135048,-0.165365 -0.746896,-0.168121 -0.407899,0 -0.716579,0.159853 -0.01654,-0.146072 -0.137804,-0.237023 -0.112999,-0.08544 -0.259071,-0.08544 z m 3.05373,2.293054 q -0.07717,-0.05237 -0.21773,-0.06339 -0.112999,-0.0083 -0.212217,0.05512 -0.165365,0.101974 -0.151584,0.341753 0.01378,0.203949 0.234266,0.341753 0.201193,0.124023 0.347265,0.151584 0.300412,0.05788 0.631141,0.05512 0.518142,-0.0028 0.815798,-0.206706 0.34451,-0.237022 0.388607,-0.614605 0.04134,-0.369314 -0.234267,-0.713823 -0.126779,-0.157096 -0.435459,-0.289388 -0.239779,-0.104731 -0.548459,-0.132291 -0.101975,-0.0083 -0.137804,-0.01929 -0.03583,-0.01102 -0.07166,-0.02205 -0.03583,-0.01103 -0.04685,-0.01929 -0.01102,-0.0083 -0.02481,-0.01378 -0.01102,-0.0083 -0.01654,-0.02205 -0.03859,-0.09646 0.06063,-0.198437 0.113,-0.115755 0.429948,-0.148828 0.245291,-0.02205 0.402387,0.07441 0.2949,0.181901 0.421679,0.14056 0.132292,-0.04134 0.195682,-0.201194 0.06063,-0.151584 -0.0083,-0.297656 -0.07441,-0.15434 -0.311436,-0.297656 -0.228754,-0.137804 -0.810286,-0.107487 -0.410655,0.02205 -0.722091,0.234267 -0.228755,0.157096 -0.350022,0.496093 -0.110243,0.300412 -0.0441,0.581532 0.09371,0.402386 0.716579,0.485069 0.286632,0.03858 0.43546,0.08268 0.170877,0.05237 0.228754,0.104731 0.151584,0.146072 0.104731,0.239778 -0.04134,0.08268 -0.206706,0.09922 -0.270095,0.02756 -0.465776,0.01654 -0.220486,-0.01378 -0.396875,-0.132291 z m 3.646287,-1.482768 q 0.234266,-0.0055 0.297656,0.08544 0.06339,0.09095 0.124023,0.181901 0.06339,0.09095 0.07166,0.520898 0,0.03032 0,0.06339 -0.0028,0.474044 -0.203949,0.675238 -0.184657,0.181901 -0.451996,0.181901 -0.225998,0 -0.407899,-0.181901 -0.181901,-0.181901 -0.181901,-0.567751 0.0028,-0.407899 0.272851,-0.755165 0.15434,-0.195681 0.479557,-0.203949 z m -1.10243,-0.20395 q -0.358289,0.479557 -0.358289,1.099674 0,0.658702 0.305924,1.028016 0.347265,0.413411 0.931553,0.416167 0.788237,0.0055 1.124478,-0.427192 0.292144,-0.355533 0.2949,-1.016991 0.0028,-0.760677 -0.137803,-0.964626 -0.14056,-0.20395 -0.283876,-0.407899 -0.14056,-0.20395 -0.788237,-0.209462 -0.705555,-0.0055 -1.08865,0.482313 z m 3.161218,-0.606336 q -0.159853,0 -0.259071,0.06615 -0.09922,0.07166 -0.101975,0.190169 l -0.06063,2.571417 q -0.0028,0.148828 0.08544,0.228754 0.07993,0.07441 0.253558,0.07717 0.179145,0.0028 0.286632,-0.07441 0.12678,-0.09095 0.132292,-0.220486 l 0.05237,-1.670181 q 0.278364,-0.1819 0.496094,-0.225998 0.278363,-0.05788 0.479557,0.0689 0.15434,0.09646 0.190169,0.107487 0.09646,0.02756 0.181901,-0.01654 0.08819,-0.04685 0.148828,-0.173633 0.02205,-0.04134 0.06614,-0.173633 0.09922,-0.283875 -0.383094,-0.507117 -0.250803,-0.118512 -0.642165,-0.112999 -0.231511,0.0055 -0.52641,0.132291 -0.03307,-0.146072 -0.154341,-0.214974 -0.09371,-0.05237 -0.24529,-0.05237 z m 4.823129,2.673392 q -0.0083,0.209462 0.04134,0.275607 0.04961,0.06615 0.09922,0.132292 0.04961,0.0689 0.248047,0.0689 h 2.025714 q 0.181901,0 0.292144,-0.09922 0.110243,-0.101975 0.112999,-0.278363 0.0028,-0.173633 -0.110243,-0.272852 -0.112999,-0.09922 -0.297656,-0.09922 l -1.590255,-0.0055 q 0.07441,-0.203949 0.333485,-0.507117 0.198438,-0.239779 0.840603,-0.672482 0.242534,-0.162609 0.556727,-0.493338 0.245291,-0.261827 0.253559,-0.719335 0.0055,-0.344509 -0.112999,-0.581532 -0.110243,-0.225998 -0.402387,-0.427191 -0.234266,-0.162609 -0.700043,-0.162609 -0.578776,0 -0.928797,0.179145 -0.228754,0.118511 -0.573264,0.520898 -0.10473,0.118511 -0.09646,0.184657 0.0083,0.06339 0.01378,0.129536 0.0083,0.06615 0.137804,0.165364 0.148828,0.110243 0.305924,0.08268 0.148828,-0.0248 0.303168,-0.173632 0.270096,-0.264583 0.454753,-0.333485 0.198437,-0.07441 0.501605,0 0.124023,0.03307 0.225998,0.176389 0.0689,0.09922 0.05237,0.225998 -0.03583,0.270095 -0.132292,0.374826 -0.135048,0.146072 -0.460264,0.336241 -0.352778,0.206705 -0.96187,0.83509 -0.416167,0.578776 -0.432704,1.138259 z"
     id="text9-3-5-5"
     style="font-weight:bold;font-size:5.64444px;font-family:'Comic Relief';-inkscape-font-specification:'Comic Relief, Bold';stroke-width:0.264583"
     aria-label="Sensor 2" /><path
     d="m 35.184581,81.7389 q 0.107487,0.413411 0.451997,0.600824 0.361045,0.198437 0.978406,0.190169 0.556727,-0.0083 0.700043,0.03307 0.143316,0.03858 0.283876,0.07993 0.143315,0.03858 0.184657,0.168121 0.09646,0.294899 -0.259071,0.584287 -0.179145,0.146072 -0.727604,0.228754 -0.303168,0.0441 -0.675238,-0.02756 -0.270096,-0.05237 -0.438216,-0.184657 -0.2949,-0.231511 -0.509874,-0.176389 -0.107487,0.02756 -0.14056,0.0689 -0.03032,0.03858 -0.06339,0.07993 -0.03032,0.04134 -0.04685,0.151584 -0.03032,0.212218 0.237023,0.43546 0.181901,0.146072 0.407899,0.237022 0.383094,0.15434 0.96187,0.151584 0.74414,-0.0028 1.314647,-0.278363 0.74414,-0.363802 0.788237,-1.107942 0.02756,-0.465777 -0.355533,-0.835091 -0.30868,-0.297656 -1.016992,-0.316948 -0.730359,-0.01929 -0.909504,-0.04134 -0.198437,-0.02481 -0.237022,-0.07166 -0.03859,-0.04685 -0.07717,-0.09095 -0.03859,-0.04685 -0.01654,-0.24529 0.02205,-0.184657 0.270095,-0.347266 0.239779,-0.159852 0.708311,-0.184657 0.303169,-0.01654 0.705555,0.115755 0.112999,0.03859 0.192926,0.05788 0.07717,0.01654 0.115755,0.01654 0.04134,0 0.07993,0.0028 0.03859,0 0.09922,-0.02756 0.10473,-0.04961 0.132291,-0.08819 0.03032,-0.04134 0.05788,-0.07993 0.03032,-0.04134 0.0248,-0.140559 -0.0055,-0.132292 -0.129535,-0.231511 -0.137804,-0.110243 -0.355534,-0.198437 -0.325217,-0.132292 -0.815798,-0.148828 -0.498849,-0.01654 -1.011479,0.184657 -0.531922,0.212218 -0.75792,0.556727 -0.272852,0.421679 -0.151585,0.879188 z m 6.063364,1.157551 q 0.16812,-0.02481 0.214974,-0.08544 0.04685,-0.06339 0.09371,-0.124024 0.04685,-0.06063 0.05237,-0.248047 0.01654,-0.44924 -0.319705,-0.779969 -0.366558,-0.361045 -1.077625,-0.32246 -0.686263,0.03858 -1.063845,0.595312 -0.2949,0.43546 -0.2949,1.003211 0.0028,0.705555 0.476801,1.096917 0.396875,0.325217 0.994943,0.330729 0.777213,0.0055 1.198892,-0.38585 0.132292,-0.121267 0.148828,-0.195681 0.01929,-0.07441 0.03583,-0.148828 0.01929,-0.07441 -0.05236,-0.231511 -0.03859,-0.07993 -0.07717,-0.09646 -0.03858,-0.01929 -0.07717,-0.03583 -0.03858,-0.01929 -0.12678,0 -0.07993,0.01654 -0.118511,0.04685 -0.03583,0.03032 -0.07441,0.06339 -0.03858,0.03032 -0.14056,0.137804 -0.15434,0.162608 -0.683506,0.16812 -0.347265,0.0028 -0.628385,-0.223242 -0.192925,-0.157096 -0.225998,-0.30868 z M 39.72108,82.246017 q 0.212217,-0.2949 0.576019,-0.2949 0.242535,0 0.460265,0.132292 0.115755,0.07166 0.16812,0.179145 l -1.320159,0.198437 q 0.07993,-0.162608 0.115755,-0.214974 z m 2.753318,-1.016991 q -0.157097,0 -0.20395,0.04961 -0.04685,0.04961 -0.09646,0.101975 -0.04685,0.04961 -0.05237,0.198437 l -0.05788,2.37298 q -0.0028,0.168121 0.08268,0.275608 0.09371,0.118511 0.248046,0.121267 0.170877,0.0028 0.283876,-0.107487 0.121267,-0.118511 0.12678,-0.300412 l 0.04685,-1.477256 q 0.424435,-0.366558 0.771701,-0.344509 0.184657,0.01102 0.23151,0.08819 0.04685,0.07717 0.09371,0.15434 0.04685,0.07717 0.03583,0.429948 l -0.03583,1.163063 q -0.0055,0.184657 0.0441,0.245291 0.05237,0.06063 0.101974,0.121267 0.05237,0.06063 0.206706,0.06339 0.03032,0 0.06339,-0.0028 0.165364,-0.01654 0.209461,-0.08268 0.0441,-0.06339 0.08819,-0.12678 0.0441,-0.06339 0.04685,-0.237022 l 0.02205,-1.273307 q 0.0083,-0.611848 -0.126779,-0.774456 -0.135048,-0.165365 -0.270095,-0.327973 -0.135048,-0.165365 -0.746896,-0.168121 -0.407899,0 -0.71658,0.159853 -0.01654,-0.146072 -0.137803,-0.237023 -0.112999,-0.08544 -0.259071,-0.08544 z m 3.05373,2.293054 q -0.07717,-0.05237 -0.21773,-0.06339 -0.112999,-0.0083 -0.212218,0.05512 -0.165364,0.101975 -0.151584,0.341754 0.01378,0.203949 0.234267,0.341753 0.201193,0.124023 0.347265,0.151584 0.300412,0.05788 0.631141,0.05512 0.518142,-0.0028 0.815798,-0.206705 0.344509,-0.237023 0.388606,-0.614605 0.04134,-0.369314 -0.234266,-0.713823 -0.126779,-0.157096 -0.43546,-0.289388 -0.239778,-0.104731 -0.548458,-0.132291 -0.101975,-0.0083 -0.137804,-0.01929 -0.03583,-0.01102 -0.07166,-0.02205 -0.03583,-0.01102 -0.04685,-0.01929 -0.01102,-0.0083 -0.0248,-0.01378 -0.01102,-0.0083 -0.01654,-0.02205 -0.03859,-0.09646 0.06063,-0.198437 0.112999,-0.115755 0.429948,-0.148828 0.24529,-0.02205 0.402387,0.07441 0.2949,0.181901 0.421679,0.14056 0.132292,-0.04134 0.195681,-0.201194 0.06063,-0.151584 -0.0083,-0.297656 -0.07441,-0.15434 -0.311436,-0.297656 -0.228754,-0.137804 -0.810286,-0.107487 -0.410655,0.02205 -0.722092,0.234266 -0.228754,0.157097 -0.350021,0.496094 -0.110243,0.300412 -0.0441,0.581532 0.09371,0.402386 0.716579,0.485069 0.286632,0.03858 0.43546,0.08268 0.170876,0.05236 0.228754,0.104731 0.151584,0.146072 0.104731,0.239778 -0.04134,0.08268 -0.206706,0.09922 -0.270095,0.02756 -0.465776,0.01654 -0.220486,-0.01378 -0.396875,-0.132291 z m 3.646287,-1.482768 q 0.234266,-0.0055 0.297656,0.08544 0.06339,0.09095 0.124023,0.181901 0.06339,0.09095 0.07166,0.520898 0,0.03032 0,0.06339 -0.0028,0.474044 -0.203949,0.675238 -0.184657,0.181901 -0.451997,0.181901 -0.225998,0 -0.407899,-0.181901 -0.181901,-0.181901 -0.181901,-0.567751 0.0028,-0.407899 0.272852,-0.755165 0.15434,-0.195681 0.479557,-0.203949 z m -1.10243,-0.20395 q -0.35829,0.479557 -0.35829,1.099674 0,0.658702 0.305925,1.028016 0.347265,0.413411 0.931553,0.416167 0.788237,0.0055 1.124478,-0.427192 0.292144,-0.355533 0.2949,-1.016991 0.0028,-0.760677 -0.137804,-0.964626 -0.14056,-0.20395 -0.283875,-0.407899 -0.14056,-0.20395 -0.788238,-0.209462 -0.705555,-0.0055 -1.088649,0.482313 z m 3.161217,-0.606336 q -0.159852,0 -0.259071,0.06615 -0.09922,0.07166 -0.101974,0.190169 l -0.06063,2.571417 q -0.0028,0.148828 0.08544,0.228754 0.07993,0.07441 0.253559,0.07717 0.179145,0.0028 0.286632,-0.07441 0.126779,-0.09095 0.132292,-0.220486 l 0.05237,-1.670181 q 0.278363,-0.181901 0.496093,-0.225998 0.278364,-0.05788 0.479557,0.0689 0.15434,0.09646 0.190169,0.107487 0.09646,0.02756 0.181901,-0.01654 0.08819,-0.04685 0.148828,-0.173633 0.02205,-0.04134 0.06615,-0.173633 0.09922,-0.283875 -0.383094,-0.507117 -0.250803,-0.118512 -0.642166,-0.113 -0.23151,0.0055 -0.52641,0.132292 -0.03307,-0.146072 -0.15434,-0.214974 -0.09371,-0.05236 -0.245291,-0.05236 z m 6.101948,1.143771 q 0.225998,0.06339 0.507118,0.234266 0.220486,0.135048 0.242534,0.44924 0.01929,0.250803 -0.05788,0.322461 -0.07441,0.0689 -0.151584,0.14056 -0.07441,0.07166 -0.43546,0.115755 -0.446484,0.05788 -0.598068,-0.110243 -0.05788,-0.06339 -0.15434,-0.148828 -0.05512,-0.04685 -0.118511,-0.107487 -0.05512,-0.05512 -0.12678,-0.07993 -0.06063,-0.02205 -0.124023,-0.01654 -0.157096,0.01654 -0.198437,0.0689 -0.04134,0.05237 -0.08544,0.104731 -0.04134,0.05236 -0.03583,0.206705 0.0083,0.322461 0.385851,0.573264 0.542946,0.361046 1.480012,0.203949 0.184657,-0.03032 0.587043,-0.358289 0.272852,-0.225998 0.338998,-0.694531 0.118511,-0.868163 -0.443728,-1.20716 -0.05512,-0.03859 -0.107487,-0.06615 0.190169,-0.104731 0.2949,-0.250803 0.212217,-0.300412 0.206705,-0.460264 -0.0055,-0.159853 -0.01102,-0.319705 -0.0055,-0.159852 -0.237023,-0.482313 -0.283875,-0.396875 -1.014235,-0.44924 -0.476801,-0.03032 -1.022503,0.256315 -0.151585,0.07993 -0.239779,0.209461 -0.08268,0.124024 -0.07166,0.270096 0.01102,0.126779 0.05237,0.16812 0.04134,0.04134 0.07993,0.08268 0.04134,0.04134 0.173632,0.05512 0.101975,0.01102 0.165365,-0.01654 0.06339,-0.02756 0.124023,-0.05236 0.06339,-0.02756 0.278364,-0.148828 0.214974,-0.121267 0.402387,-0.104731 0.267339,0.02481 0.429947,0.112999 0.151584,0.08268 0.170877,0.256315 0.01929,0.15434 -0.03307,0.20395 -0.05237,0.04685 -0.104731,0.09646 -0.05237,0.04685 -0.2949,0.09646 -0.272851,0.05788 -0.611848,0.173633 -0.12678,0.0441 -0.201194,0.126779 -0.07441,0.08268 -0.07993,0.190169 -0.01378,0.30868 0.639409,0.355534 z"
     id="text9-3-5-4"
     style="font-weight:bold;font-size:5.64444px;font-family:'Comic Relief';-inkscape-font-specification:'Comic Relief, Bold';stroke-width:0.264583"
     aria-label="Sensor 3" /><path
     d="m 35.400684,96.182923 q 0.107487,0.413411 0.451996,0.600824 0.361046,0.198437 0.978407,0.190169 0.556727,-0.0083 0.700043,0.03307 0.143315,0.03858 0.283875,0.07993 0.143316,0.03858 0.184657,0.168121 0.09646,0.2949 -0.259071,0.584287 -0.179145,0.146072 -0.727603,0.228755 -0.303169,0.0441 -0.675239,-0.02756 -0.270095,-0.05237 -0.438215,-0.184657 -0.2949,-0.23151 -0.509874,-0.176389 -0.107487,0.02756 -0.14056,0.0689 -0.03032,0.03858 -0.06339,0.07993 -0.03032,0.04134 -0.04685,0.151584 -0.03032,0.212218 0.237022,0.43546 0.181901,0.146072 0.407899,0.237022 0.383095,0.15434 0.96187,0.151584 0.74414,-0.0028 1.314648,-0.278363 0.74414,-0.363802 0.788237,-1.107942 0.02756,-0.465777 -0.355534,-0.83509 -0.30868,-0.297657 -1.016991,-0.316949 -0.73036,-0.01929 -0.909504,-0.04134 -0.198438,-0.02481 -0.237023,-0.07166 -0.03859,-0.04685 -0.07717,-0.09095 -0.03858,-0.04685 -0.01654,-0.24529 0.02205,-0.184657 0.270095,-0.347266 0.239778,-0.159852 0.708311,-0.184656 0.303168,-0.01654 0.705555,0.115755 0.112999,0.03858 0.192925,0.05788 0.07717,0.01654 0.115755,0.01654 0.04134,0 0.07993,0.0028 0.03859,0 0.09922,-0.02756 0.104731,-0.04961 0.132292,-0.08819 0.03032,-0.04134 0.05788,-0.07993 0.03032,-0.04134 0.02481,-0.140559 -0.0055,-0.132292 -0.129536,-0.231511 -0.137803,-0.110243 -0.355533,-0.198437 -0.325217,-0.132292 -0.815798,-0.148828 -0.49885,-0.01654 -1.011479,0.184657 -0.531923,0.212218 -0.757921,0.556727 -0.272851,0.421679 -0.151584,0.879188 z m 6.063364,1.157551 q 0.16812,-0.02481 0.214973,-0.08544 0.04685,-0.06339 0.09371,-0.124024 0.04685,-0.06063 0.05237,-0.248046 0.01654,-0.449241 -0.319704,-0.779969 -0.366558,-0.361046 -1.077625,-0.322461 -0.686263,0.03858 -1.063845,0.595312 -0.2949,0.43546 -0.2949,1.003211 0.0028,0.705555 0.476801,1.096918 0.396874,0.325216 0.994943,0.330728 0.777213,0.0055 1.198892,-0.38585 0.132292,-0.121267 0.148828,-0.195681 0.01929,-0.07441 0.03583,-0.148828 0.01929,-0.07441 -0.05237,-0.23151 -0.03859,-0.07993 -0.07717,-0.09646 -0.03858,-0.01929 -0.07717,-0.03583 -0.03859,-0.01929 -0.126779,0 -0.07993,0.01654 -0.118511,0.04685 -0.03583,0.03032 -0.07441,0.06339 -0.03859,0.03032 -0.14056,0.137804 -0.15434,0.162608 -0.683506,0.16812 -0.347266,0.0028 -0.628385,-0.223242 -0.192926,-0.157096 -0.225999,-0.30868 z M 39.937182,96.69004 q 0.212218,-0.2949 0.57602,-0.2949 0.242534,0 0.460264,0.132292 0.115755,0.07166 0.168121,0.179145 l -1.32016,0.198437 q 0.07993,-0.162608 0.115755,-0.214974 z M 42.6905,95.673049 q -0.157096,0 -0.203949,0.04961 -0.04685,0.04961 -0.09646,0.101975 -0.04685,0.04961 -0.05237,0.198437 l -0.05788,2.37298 q -0.0028,0.168121 0.08268,0.275608 0.09371,0.118511 0.248047,0.121267 0.170877,0.0028 0.283876,-0.107487 0.121267,-0.118511 0.126779,-0.300412 l 0.04685,-1.477256 q 0.424436,-0.366558 0.771701,-0.344509 0.184657,0.01102 0.23151,0.08819 0.04685,0.07717 0.09371,0.154341 0.04685,0.07717 0.03583,0.429947 L 44.165,98.398806 q -0.0055,0.184657 0.0441,0.245291 0.05237,0.06063 0.101975,0.121267 0.05236,0.06063 0.206705,0.06339 0.03032,0 0.06339,-0.0028 0.165365,-0.01654 0.209462,-0.08268 0.0441,-0.06339 0.08819,-0.12678 0.0441,-0.06339 0.04685,-0.237022 l 0.02205,-1.273306 q 0.0083,-0.611849 -0.126779,-0.774457 -0.135048,-0.165365 -0.270096,-0.327973 -0.135047,-0.165365 -0.746896,-0.168121 -0.407899,0 -0.716579,0.159853 -0.01654,-0.146072 -0.137804,-0.237023 -0.112999,-0.08544 -0.259071,-0.08544 z m 3.053731,2.293054 q -0.07717,-0.05237 -0.21773,-0.06339 -0.112999,-0.0083 -0.212218,0.05512 -0.165364,0.101974 -0.151584,0.341753 0.01378,0.203949 0.234266,0.341753 0.201194,0.124023 0.347266,0.151584 0.300412,0.05788 0.631141,0.05512 0.518142,-0.0028 0.815798,-0.206706 0.344509,-0.237022 0.388606,-0.614605 0.04134,-0.369314 -0.234266,-0.713823 -0.12678,-0.157096 -0.43546,-0.289388 -0.239778,-0.10473 -0.548459,-0.132291 -0.101975,-0.0083 -0.137804,-0.01929 -0.03583,-0.01102 -0.07166,-0.02205 -0.03583,-0.01102 -0.04685,-0.01929 -0.01102,-0.0083 -0.0248,-0.01378 -0.01103,-0.0083 -0.01654,-0.02205 -0.03858,-0.09646 0.06063,-0.198437 0.112999,-0.115755 0.429947,-0.148828 0.245291,-0.02205 0.402387,0.07441 0.2949,0.181901 0.42168,0.14056 0.132291,-0.04134 0.195681,-0.201194 0.06063,-0.151584 -0.0083,-0.297656 -0.07441,-0.15434 -0.311437,-0.297656 -0.228754,-0.137804 -0.810286,-0.107487 -0.410655,0.02205 -0.722091,0.234267 -0.228754,0.157096 -0.350021,0.496093 -0.110243,0.300412 -0.0441,0.581532 0.09371,0.402387 0.71658,0.485069 0.286631,0.03858 0.435459,0.08268 0.170877,0.05236 0.228755,0.104731 0.151584,0.146072 0.10473,0.239778 -0.04134,0.08268 -0.206705,0.09922 -0.270095,0.02756 -0.465777,0.01654 -0.220486,-0.01378 -0.396874,-0.132291 z m 3.646286,-1.482768 q 0.234267,-0.0055 0.297656,0.08544 0.06339,0.09095 0.124024,0.181901 0.06339,0.09095 0.07166,0.520898 0,0.03032 0,0.06339 -0.0028,0.474045 -0.20395,0.675238 -0.184657,0.181901 -0.451996,0.181901 -0.225998,0 -0.407899,-0.181901 -0.181901,-0.181901 -0.181901,-0.567751 0.0028,-0.407899 0.272851,-0.755165 0.154341,-0.195681 0.479557,-0.203949 z m -1.102429,-0.20395 q -0.35829,0.479557 -0.35829,1.099674 0,0.658702 0.305924,1.028016 0.347266,0.413411 0.931553,0.416167 0.788238,0.0055 1.124479,-0.427192 0.292143,-0.355533 0.2949,-1.016991 0.0028,-0.760677 -0.137804,-0.964626 -0.14056,-0.20395 -0.283876,-0.407899 -0.14056,-0.20395 -0.788237,-0.209462 -0.705555,-0.0055 -1.088649,0.482313 z m 3.161217,-0.606336 q -0.159852,0 -0.259071,0.06615 -0.09922,0.07166 -0.101975,0.190169 l -0.06063,2.571417 q -0.0028,0.148828 0.08544,0.228754 0.07993,0.07441 0.253559,0.07717 0.179145,0.0028 0.286632,-0.07441 0.126779,-0.09095 0.132291,-0.220485 l 0.05237,-1.670182 q 0.278363,-0.1819 0.496093,-0.225998 0.278363,-0.05788 0.479557,0.0689 0.15434,0.09646 0.190169,0.107487 0.09646,0.02756 0.181901,-0.01654 0.08819,-0.04685 0.148828,-0.173633 0.02205,-0.04134 0.06615,-0.173633 0.09922,-0.283875 -0.383095,-0.507117 -0.250802,-0.118512 -0.642165,-0.112999 -0.23151,0.0055 -0.52641,0.132291 -0.03307,-0.146072 -0.15434,-0.214974 -0.09371,-0.05236 -0.245291,-0.05236 z m 4.621936,1.311891 q -0.118511,0.168121 -0.118511,0.327973 0,0.162609 0.05236,0.212218 0.05237,0.04685 0.104731,0.09646 0.05237,0.04685 0.220486,0.04685 l 1.548914,-0.0028 q 0,0.388606 0.0028,0.777213 0,0.159852 0.112999,0.267339 0.118511,0.112999 0.311436,0.115755 0.195682,0 0.305924,-0.112999 0.101975,-0.101975 0.101975,-0.267339 v -0.782725 h 0.118511 q 0.225999,0 0.363802,-0.09922 0.137804,-0.09646 0.135048,-0.289388 -0.0055,-0.192925 -0.07717,-0.242534 -0.07166,-0.04961 -0.143316,-0.09646 -0.07166,-0.04961 -0.2949,-0.04961 H 58.714316 V 94.90686 q 0,-0.176388 -0.112999,-0.281119 -0.118511,-0.110243 -0.322461,-0.112999 -0.454752,-0.0028 -0.664213,0.292144 z m 0.942577,-0.09646 0.931554,-1.226453 q -0.0028,0.647677 -0.0028,1.226453 z"
     id="text9-3-5-7"
     style="font-weight:bold;font-size:5.64444px;font-family:'Comic Relief';-inkscape-font-specification:'Comic Relief, Bold';stroke-width:0.264583"
     aria-label="Sensor 4" /><g
     id="g1"
     transform="translate(0.56276753,-45.464929)"><path
       d="m 24.627801,50.144232 q -0.114722,0.09922 -0.117822,0.266651 l -0.10542,3.993554 q -0.0062,0.182935 0.102319,0.300757 0.108521,0.117822 0.300757,0.120923 0.204639,0.0062 0.341065,-0.10542 0.139526,-0.117822 0.145727,-0.306958 l 0.05271,-1.882056 1.571997,-0.0062 q 0.269751,-0.0031 0.347266,-0.05271 0.08061,-0.04961 0.15813,-0.09922 0.08061,-0.04961 0.07441,-0.244947 -0.0062,-0.217041 -0.08682,-0.275952 -0.07751,-0.05891 -0.15813,-0.117822 -0.07751,-0.05891 -0.356567,-0.05891 l -1.528589,0.0062 0.02481,-0.79065 q 0.945679,-0.0031 1.891357,-0.0093 0.251148,-0.0031 0.328662,-0.05271 0.08062,-0.04961 0.15813,-0.09612 0.07751,-0.04961 0.07131,-0.248047 -0.0062,-0.220142 -0.08682,-0.279053 -0.07751,-0.05891 -0.15813,-0.114722 -0.07751,-0.05891 -0.334863,-0.05891 l -2.151806,0.0124 q -0.03411,0 -0.06511,0.0031 -0.05581,-0.0093 -0.120923,-0.0093 -0.179834,0 -0.297656,0.10542 z m 3.96875,1.451074 q -0.117822,0.136426 -0.124023,0.359668 l -0.05271,2.396753 q -0.0031,0.217041 0.114721,0.350367 0.117823,0.145727 0.337964,0.148828 0.21084,0 0.319361,-0.151929 0.10852,-0.142627 0.111621,-0.365869 l 0.04341,-2.37815 q 0.0031,-0.21394 -0.10232,-0.350366 -0.10852,-0.151929 -0.316259,-0.155029 -0.213941,-0.0031 -0.331763,0.145727 z m 0.359668,-1.562695 q -0.142627,0 -0.26665,0.07751 -0.10542,0.07441 -0.173633,0.189136 -0.06821,0.117822 -0.06821,0.251147 0,0.142627 0.07441,0.26355 0.06821,0.111621 0.179834,0.179834 0.111621,0.07131 0.241846,0.07441 h 0.0186 q 0.130225,0 0.235645,-0.05271 0.102319,-0.04651 0.182934,-0.151929 0.08992,-0.120923 0.10232,-0.269751 v -0.0062 -0.03721 q 0,-0.127124 -0.05581,-0.238745 -0.06821,-0.136426 -0.198437,-0.21084 -0.117823,-0.06821 -0.26045,-0.06821 z m 1.739428,-0.328662 q -0.186035,0.0031 -0.241845,0.06201 -0.05581,0.05581 -0.114722,0.114721 -0.05581,0.05581 -0.05891,0.241846 l -0.10542,4.254004 q -0.0031,0.192236 0.102319,0.31626 0.10542,0.133325 0.300757,0.136426 0.213941,0.0031 0.341065,-0.120923 0.127124,-0.120923 0.130224,-0.322461 l 0.09612,-4.241602 q 0.0031,-0.201538 -0.05891,-0.260449 -0.05891,-0.06201 -0.120923,-0.120923 -0.06201,-0.05891 -0.269751,-0.05891 z m 3.385841,4.895825 q 0.07131,0.167432 0.21394,0.235645 0.136426,0.07131 0.310059,0.03101 0.145727,-0.03101 0.217041,-0.145728 0.07131,-0.10542 0.04341,-0.254248 -0.0217,-0.117822 -0.111621,-0.272852 -0.145728,-0.257348 -0.136426,-0.911572 0.0155,-0.852661 0.07752,-1.199927 0.03721,-0.223242 -0.0124,-0.300756 -0.04651,-0.08062 -0.09612,-0.15813 -0.04651,-0.07752 -0.257349,-0.127124 -0.179834,-0.04651 -0.31936,0.0186 -0.889868,-0.220141 -1.686719,0.365869 -0.632519,0.530201 -0.623217,1.488282 0.0031,0.731738 0.359668,1.11621 0.359667,0.384473 1.141015,0.384473 0.294556,-0.0031 0.880567,-0.269751 z m -1.026294,-0.415478 q -0.272852,-0.0186 -0.341065,-0.117823 -0.06821,-0.102319 -0.136426,-0.201538 -0.06821,-0.09922 -0.07441,-0.539502 0.02791,-0.663525 0.548804,-1.026294 0.120923,-0.08682 0.334863,-0.136425 0.241846,-0.05581 0.468189,0.04651 -0.117823,0.530201 -0.0186,1.711524 -0.226343,0.173633 -0.310058,0.201538 -0.217041,0.07751 -0.471289,0.06201 z m 2.669604,-2.880445 q -0.179834,0 -0.235645,0.05581 -0.05271,0.05581 -0.10852,0.114722 -0.05581,0.05581 -0.06201,0.223242 l -0.06821,2.660302 q -0.0031,0.189136 0.09612,0.310059 0.111621,0.133325 0.288354,0.136426 0.198438,0.0031 0.31936,-0.120923 0.130225,-0.133325 0.136426,-0.337964 l 0.05271,-1.506885 q 0.08062,-0.282153 0.151929,-0.341064 0.07131,-0.06201 0.142627,-0.120923 0.07131,-0.05891 0.297656,-0.05271 0.08372,0.0031 0.114722,0.0217 0.03101,0.0186 0.05891,0.03721 0.03101,0.0186 0.05581,0.06201 0.02481,0.04031 0.04961,0.08372 0.0248,0.04341 0.04961,0.195337 0.02481,0.15813 0.0186,0.365869 l -0.03411,1.227832 q -0.0031,0.204639 0.10232,0.344165 0.105419,0.136426 0.303857,0.139526 0.03411,0 0.06821,-0.0031 0.204638,-0.0186 0.260449,-0.08992 0.05581,-0.07131 0.111621,-0.142627 0.05581,-0.07131 0.06201,-0.294556 l 0.04031,-1.392163 q 0.0031,-0.124023 0.0062,-0.148828 0.09302,-0.229443 0.173632,-0.279053 0.08062,-0.05271 0.161231,-0.102319 0.08062,-0.05271 0.334863,-0.04651 0.08372,0.0031 0.114722,0.0217 0.03411,0.0186 0.06511,0.04031 0.03411,0.0186 0.05891,0.06201 0.02791,0.04341 0.05271,0.08992 0.0248,0.04341 0.04961,0.201539 0.0248,0.16123 0.0217,0.381372 l -0.0186,1.265039 q 0,0.210839 0.108521,0.344165 0.102319,0.133325 0.291455,0.136425 0.03101,0 0.06511,-0.0031 0.192236,-0.0186 0.244946,-0.09302 0.05271,-0.07131 0.10232,-0.142627 0.05271,-0.07131 0.05581,-0.26665 l 0.0217,-1.423169 q 0.0124,-0.68833 -0.145727,-0.871265 -0.155029,-0.186035 -0.313159,-0.368969 -0.15503,-0.186035 -0.815454,-0.189136 -0.617017,-0.0031 -0.979786,0.362768 -0.300756,-0.368969 -0.923974,-0.362768 -0.31626,0.0031 -0.570508,0.133325 -0.03101,-0.151929 -0.09302,-0.192236 -0.06201,-0.04341 -0.124023,-0.08372 -0.06201,-0.04031 -0.217041,-0.04031 z m 7.075537,1.875855 q 0.189136,-0.02791 0.241846,-0.09612 0.05271,-0.07131 0.10542,-0.139527 0.05271,-0.06821 0.05891,-0.279052 0.0186,-0.505396 -0.359668,-0.877466 -0.412378,-0.406177 -1.212329,-0.362769 -0.772046,0.04341 -1.196827,0.669727 -0.331762,0.489892 -0.331762,1.128613 0.0031,0.79375 0.536401,1.234033 0.446484,0.365869 1.119312,0.372071 0.874365,0.0062 1.348754,-0.434082 0.148829,-0.136426 0.167432,-0.220142 0.0217,-0.08372 0.04031,-0.167432 0.0217,-0.08372 -0.05891,-0.260449 -0.04341,-0.08992 -0.08682,-0.10852 -0.04341,-0.0217 -0.08682,-0.04031 -0.04341,-0.0217 -0.142627,0 -0.08992,0.0186 -0.133325,0.05271 -0.04031,0.03411 -0.08372,0.07131 -0.04341,0.03411 -0.15813,0.15503 -0.173633,0.182934 -0.768945,0.189135 -0.390674,0.0031 -0.706934,-0.251147 -0.217041,-0.176733 -0.254248,-0.347266 z M 41.08261,52.447968 q 0.238745,-0.331763 0.648023,-0.331763 0.272851,0 0.517798,0.148828 0.130224,0.08061 0.189135,0.201538 l -1.48518,0.223242 q 0.08992,-0.182934 0.130224,-0.241845 z m 3.097486,-1.144117 q -0.176734,0 -0.229444,0.05581 -0.05271,0.05581 -0.10852,0.114722 -0.05271,0.05581 -0.05891,0.223242 l -0.06511,2.669604 q -0.0031,0.189136 0.09302,0.310059 0.10542,0.133325 0.279053,0.136426 0.192236,0.0031 0.31936,-0.120923 0.136426,-0.133325 0.142627,-0.337964 l 0.05271,-1.661914 q 0.47749,-0.412378 0.868164,-0.387573 0.207739,0.0124 0.260449,0.09922 0.05271,0.08682 0.10542,0.173633 0.05271,0.08682 0.04031,0.483692 l -0.04031,1.308447 q -0.0062,0.207739 0.04961,0.275952 0.05891,0.06821 0.114722,0.136426 0.05891,0.06821 0.232544,0.07131 0.03411,0 0.07131,-0.0031 0.186035,-0.0186 0.235644,-0.09302 0.04961,-0.07131 0.09922,-0.142627 0.04961,-0.07131 0.05271,-0.26665 l 0.02481,-1.432471 q 0.0093,-0.68833 -0.142627,-0.871265 -0.151929,-0.186035 -0.303858,-0.368969 -0.151929,-0.186035 -0.840259,-0.189136 -0.458886,0 -0.806152,0.179834 -0.0186,-0.164331 -0.155029,-0.26665 -0.127124,-0.09612 -0.291455,-0.09612 z m 4.191991,-1.599902 q -0.195336,0 -0.254248,0.05891 -0.05891,0.05581 -0.117822,0.114722 -0.05891,0.05581 -0.06201,0.244946 l -0.03411,1.336353 q -0.300757,0.0031 -0.555005,0.0031 -0.173633,0 -0.223242,0.06201 -0.04961,0.05891 -0.102319,0.120923 -0.04961,0.05891 -0.04961,0.260449 0,0.192236 0.09612,0.31626 0.09302,0.120923 0.254248,0.120923 h 0.558106 l -0.05581,2.049487 q -0.0031,0.182934 0.108521,0.300757 0.111621,0.133325 0.313159,0.136426 0.223242,0.0031 0.356567,-0.120923 0.133326,-0.114722 0.136426,-0.306958 l 0.04961,-2.058789 h 0.514697 q 0.192236,0 0.251147,-0.05891 0.06201,-0.06201 0.120923,-0.120923 0.05891,-0.05891 0.05891,-0.164331 0,-0.10542 0,-0.21084 0,-0.10542 -0.06201,-0.164331 -0.06201,-0.05891 -0.124024,-0.114722 -0.06201,-0.05891 -0.26355,-0.05581 l -0.471289,0.0031 q 0.0186,-0.601514 0.02481,-1.311548 0,-0.201538 -0.06511,-0.260449 -0.06201,-0.06201 -0.127124,-0.120923 -0.06511,-0.05891 -0.275953,-0.05891 z m 4.988844,4.17959 q -0.08682,-0.05891 -0.244947,-0.07131 -0.127124,-0.0093 -0.238745,0.06201 -0.186035,0.114722 -0.170532,0.384473 0.0155,0.229443 0.26355,0.384472 0.226343,0.139527 0.390674,0.170533 0.337963,0.06511 0.710034,0.06201 0.58291,-0.0031 0.917773,-0.232544 0.387573,-0.26665 0.437183,-0.69143 0.04651,-0.415479 -0.26355,-0.803052 -0.142627,-0.176733 -0.489893,-0.325562 -0.269751,-0.117822 -0.617016,-0.148828 -0.114722,-0.0093 -0.155029,-0.0217 -0.04031,-0.0124 -0.08062,-0.0248 -0.04031,-0.0124 -0.05271,-0.02171 -0.0124,-0.0093 -0.02791,-0.0155 -0.0124,-0.0093 -0.0186,-0.02481 -0.04341,-0.108521 0.06821,-0.223242 0.127124,-0.130225 0.483692,-0.167432 0.275952,-0.02481 0.452685,0.08372 0.331763,0.204638 0.47439,0.15813 0.148828,-0.04651 0.220142,-0.226343 0.06821,-0.170532 -0.0093,-0.334863 -0.08372,-0.173633 -0.350366,-0.334864 -0.257349,-0.155029 -0.911573,-0.120922 -0.461987,0.0248 -0.812353,0.263549 -0.257349,0.176734 -0.393774,0.558106 -0.124024,0.337964 -0.04961,0.654223 0.10542,0.452686 0.806152,0.545704 0.322461,0.04341 0.489893,0.09302 0.192236,0.05891 0.257349,0.117822 0.170532,0.164331 0.117822,0.269751 -0.04651,0.09302 -0.232544,0.111621 -0.303857,0.03101 -0.523999,0.0186 -0.248047,-0.0155 -0.446484,-0.148828 z m 5.150072,-0.703833 q 0.189136,-0.02791 0.241846,-0.09612 0.05271,-0.07131 0.10542,-0.139527 0.05271,-0.06821 0.05891,-0.279052 0.0186,-0.505396 -0.359668,-0.877466 -0.412378,-0.406177 -1.212329,-0.362769 -0.772046,0.04341 -1.196826,0.669727 -0.331763,0.489892 -0.331763,1.128613 0.0031,0.79375 0.536402,1.234033 0.446484,0.365869 1.119311,0.372071 0.874365,0.0062 1.348755,-0.434082 0.148828,-0.136426 0.167432,-0.220142 0.0217,-0.08372 0.04031,-0.167432 0.0217,-0.08372 -0.05891,-0.260449 -0.04341,-0.08992 -0.08682,-0.10852 -0.04341,-0.0217 -0.08682,-0.04031 -0.04341,-0.0217 -0.142627,0 -0.08992,0.0186 -0.133325,0.05271 -0.04031,0.03411 -0.08372,0.07131 -0.04341,0.03411 -0.158129,0.15503 -0.173633,0.182934 -0.768946,0.189135 -0.390674,0.0031 -0.706933,-0.251147 -0.217041,-0.176733 -0.254248,-0.347266 z m -1.717724,-0.731738 q 0.238745,-0.331763 0.648022,-0.331763 0.272852,0 0.517798,0.148828 0.130225,0.08061 0.189136,0.201538 l -1.485181,0.223242 q 0.08992,-0.182934 0.130225,-0.241845 z m 3.097485,-1.144117 q -0.176733,0 -0.229443,0.05581 -0.05271,0.05581 -0.108521,0.114722 -0.05271,0.05581 -0.05891,0.223242 l -0.06511,2.669604 q -0.0031,0.189136 0.09302,0.310059 0.105419,0.133325 0.279052,0.136426 0.192237,0.0031 0.319361,-0.120923 0.136425,-0.133325 0.142627,-0.337964 l 0.05271,-1.661914 q 0.477491,-0.412378 0.868165,-0.387573 0.207739,0.0124 0.260449,0.09922 0.05271,0.08682 0.10542,0.173633 0.05271,0.08682 0.04031,0.483692 l -0.04031,1.308447 q -0.0062,0.207739 0.04961,0.275952 0.05891,0.06821 0.114722,0.136426 0.05891,0.06821 0.232544,0.07131 0.03411,0 0.07131,-0.0031 0.186035,-0.0186 0.235645,-0.09302 0.04961,-0.07131 0.09922,-0.142627 0.04961,-0.07131 0.05271,-0.26665 l 0.02481,-1.432471 q 0.0093,-0.68833 -0.142627,-0.871265 -0.151929,-0.186035 -0.303857,-0.368969 -0.151929,-0.186035 -0.840259,-0.189136 -0.458887,0 -0.806152,0.179834 -0.0186,-0.164331 -0.15503,-0.26665 -0.127124,-0.09612 -0.291455,-0.09612 z m 3.435451,2.579688 q -0.08682,-0.05891 -0.244946,-0.07131 -0.127124,-0.0093 -0.238745,0.06201 -0.186036,0.114722 -0.170533,0.384473 0.0155,0.229443 0.26355,0.384472 0.226343,0.139527 0.390674,0.170533 0.337964,0.06511 0.710034,0.06201 0.58291,-0.0031 0.917774,-0.232544 0.387573,-0.26665 0.437182,-0.69143 0.04651,-0.415479 -0.26355,-0.803052 -0.142627,-0.176733 -0.489892,-0.325562 -0.269751,-0.117822 -0.617017,-0.148828 -0.114721,-0.0093 -0.155029,-0.0217 -0.04031,-0.0124 -0.08061,-0.0248 -0.04031,-0.0124 -0.05271,-0.02171 -0.0124,-0.0093 -0.02791,-0.0155 -0.0124,-0.0093 -0.0186,-0.02481 -0.04341,-0.108521 0.06821,-0.223242 0.127124,-0.130225 0.483691,-0.167432 0.275952,-0.02481 0.452686,0.08372 0.331762,0.204638 0.474389,0.15813 0.148829,-0.04651 0.220142,-0.226343 0.06821,-0.170532 -0.0093,-0.334863 -0.08372,-0.173633 -0.350366,-0.334864 -0.257349,-0.155029 -0.911572,-0.120922 -0.461988,0.0248 -0.812354,0.263549 -0.257348,0.176734 -0.393774,0.558106 -0.124024,0.337964 -0.04961,0.654223 0.10542,0.452686 0.806153,0.545704 0.322461,0.04341 0.489892,0.09302 0.192237,0.05891 0.257349,0.117822 0.170532,0.164331 0.117822,0.269751 -0.04651,0.09302 -0.232544,0.111621 -0.303857,0.03101 -0.523999,0.0186 -0.248047,-0.0155 -0.446484,-0.148828 z m 4.102073,-1.668115 q 0.26355,-0.0062 0.334863,0.09612 0.07131,0.102319 0.139527,0.204638 0.07131,0.10232 0.08062,0.586011 0,0.03411 0,0.07131 -0.0031,0.5333 -0.229444,0.759643 -0.207739,0.204639 -0.508496,0.204639 -0.254248,0 -0.458886,-0.204639 -0.204639,-0.204638 -0.204639,-0.63872 0.0031,-0.458887 0.306958,-0.849561 0.173633,-0.220142 0.539502,-0.229443 z M 66.188054,51.98598 q -0.403077,0.539502 -0.403077,1.237134 0,0.74104 0.344165,1.156519 0.390674,0.465087 1.047998,0.468188 0.886768,0.0062 1.265039,-0.480591 0.328663,-0.399975 0.331763,-1.144116 0.0031,-0.855762 -0.155029,-1.085205 -0.15813,-0.229443 -0.319361,-0.458887 -0.158129,-0.229443 -0.886767,-0.235644 -0.79375,-0.0062 -1.224731,0.542602 z m 3.556373,-0.682129 q -0.179834,0 -0.291455,0.07441 -0.111621,0.08062 -0.114722,0.213941 l -0.06821,2.892846 q -0.0031,0.167432 0.09612,0.257349 0.08992,0.08372 0.285254,0.08682 0.201538,0.0031 0.32246,-0.08372 0.142627,-0.10232 0.148829,-0.248047 L 70.18161,52.6185 q 0.313159,-0.204639 0.558105,-0.254248 0.313159,-0.06511 0.539502,0.07751 0.173633,0.108521 0.213941,0.120923 0.10852,0.03101 0.204638,-0.0186 0.09922,-0.05271 0.167432,-0.195337 0.02481,-0.04651 0.07441,-0.195337 0.111621,-0.31936 -0.430982,-0.570508 -0.282153,-0.133325 -0.722436,-0.127124 -0.260449,0.0062 -0.592212,0.148828 -0.03721,-0.164331 -0.173633,-0.241845 -0.10542,-0.05891 -0.275952,-0.05891 z m 6.706565,2.768824 q -0.37207,-0.0124 -0.579809,-0.251148 -0.241846,-0.285254 -0.232544,-0.626318 0.0093,-0.372071 0.238745,-0.657324 0.195337,-0.241846 0.427881,-0.303858 0.42788,-0.117822 0.759643,0.09612 0.353467,0.257349 0.558106,0.108521 0.09302,-0.06821 0.10852,-0.117822 0.0186,-0.04961 0.03411,-0.09612 0.0186,-0.04961 0.0062,-0.102319 -0.0093,-0.05271 -0.0217,-0.102319 -0.0093,-0.05271 -0.07752,-0.161231 -0.136426,-0.217041 -0.517798,-0.347265 -0.350366,-0.108521 -0.775146,-0.07752 -0.750342,0.04651 -1.16272,0.644922 -0.331763,0.483691 -0.331763,1.230932 0.0031,0.694532 0.471289,1.156519 0.409278,0.375171 1.088306,0.378271 0.818555,0.0031 1.16272,-0.297656 0.316259,-0.282153 0.173633,-0.5302 -0.09612,-0.164331 -0.170533,-0.186035 -0.07131,-0.0217 -0.145727,-0.04341 -0.07441,-0.0217 -0.232544,0.07131 -0.0155,0.0093 -0.03101,0.0186 -0.341064,0.207739 -0.750342,0.195337 z m 3.382741,-1.857251 q 0.26355,-0.0062 0.334863,0.09612 0.07131,0.102319 0.139527,0.204638 0.07131,0.10232 0.08062,0.586011 0,0.03411 0,0.07131 -0.0031,0.5333 -0.229444,0.759643 -0.207739,0.204639 -0.508496,0.204639 -0.254248,0 -0.458886,-0.204639 -0.204639,-0.204638 -0.204639,-0.63872 0.0031,-0.458887 0.306958,-0.849561 0.173633,-0.220142 0.539502,-0.229443 z M 78.593499,51.98598 q -0.403077,0.539502 -0.403077,1.237134 0,0.74104 0.344165,1.156519 0.390674,0.465087 1.047999,0.468188 0.886767,0.0062 1.265039,-0.480591 0.328662,-0.399975 0.331762,-1.144116 0.0031,-0.855762 -0.155029,-1.085205 -0.15813,-0.229443 -0.31936,-0.458887 -0.15813,-0.229443 -0.886768,-0.235644 -0.79375,-0.0062 -1.224731,0.542602 z m 3.457151,-0.682129 q -0.176734,0 -0.229444,0.05581 -0.05271,0.05581 -0.10852,0.114722 -0.05271,0.05581 -0.05891,0.223242 l -0.06511,2.669604 q -0.0031,0.189136 0.09302,0.310059 0.10542,0.133325 0.279053,0.136426 0.192236,0.0031 0.31936,-0.120923 0.136426,-0.133325 0.142627,-0.337964 l 0.05271,-1.661914 q 0.47749,-0.412378 0.868164,-0.387573 0.207739,0.0124 0.260449,0.09922 0.05271,0.08682 0.10542,0.173633 0.05271,0.08682 0.04031,0.483692 l -0.04031,1.308447 q -0.0062,0.207739 0.04961,0.275952 0.05891,0.06821 0.114722,0.136426 0.05891,0.06821 0.232544,0.07131 0.03411,0 0.07131,-0.0031 0.186035,-0.0186 0.235644,-0.09302 0.04961,-0.07131 0.09922,-0.142627 0.04961,-0.07131 0.05271,-0.26665 l 0.0248,-1.432471 q 0.0093,-0.68833 -0.142626,-0.871265 -0.151929,-0.186035 -0.303858,-0.368969 -0.151929,-0.186035 -0.840259,-0.189136 -0.458886,0 -0.806152,0.179834 -0.0186,-0.164331 -0.155029,-0.26665 -0.127124,-0.09612 -0.291455,-0.09612 z m 4.191993,-1.599902 q -0.195337,0 -0.254248,0.05891 -0.05891,0.05581 -0.117822,0.114722 -0.05891,0.05581 -0.06201,0.244946 l -0.03411,1.336353 q -0.300757,0.0031 -0.555005,0.0031 -0.173633,0 -0.223242,0.06201 -0.04961,0.05891 -0.10232,0.120923 -0.04961,0.05891 -0.04961,0.260449 0,0.192236 0.09612,0.31626 0.09302,0.120923 0.254248,0.120923 h 0.558106 l -0.05581,2.049487 q -0.0031,0.182934 0.108521,0.300757 0.111621,0.133325 0.313159,0.136426 0.223242,0.0031 0.356567,-0.120923 0.133325,-0.114722 0.136426,-0.306958 l 0.04961,-2.058789 h 0.514698 q 0.192236,0 0.251147,-0.05891 0.06201,-0.06201 0.120923,-0.120923 0.05891,-0.05891 0.05891,-0.164331 0,-0.10542 0,-0.21084 0,-0.10542 -0.06201,-0.164331 -0.06201,-0.05891 -0.124023,-0.114722 -0.06201,-0.05891 -0.26355,-0.05581 l -0.471289,0.0031 q 0.0186,-0.601514 0.02481,-1.311548 0,-0.201538 -0.06511,-0.260449 -0.06201,-0.06201 -0.127124,-0.120923 -0.06511,-0.05891 -0.275952,-0.05891 z m 2.22312,1.599902 q -0.179834,0 -0.291455,0.07441 -0.111621,0.08062 -0.114721,0.213941 l -0.06821,2.892846 q -0.0031,0.167432 0.09612,0.257349 0.08992,0.08372 0.285254,0.08682 0.201538,0.0031 0.322461,-0.08372 0.142627,-0.10232 0.148828,-0.248047 l 0.05891,-1.878955 q 0.313159,-0.204639 0.558106,-0.254248 0.313159,-0.06511 0.539501,0.07751 0.173633,0.108521 0.213941,0.120923 0.10852,0.03101 0.204639,-0.0186 0.09922,-0.05271 0.167431,-0.195337 0.02481,-0.04651 0.07441,-0.195337 0.111621,-0.31936 -0.430981,-0.570508 -0.282153,-0.133325 -0.722437,-0.127124 -0.260449,0.0062 -0.592212,0.148828 -0.03721,-0.164331 -0.173632,-0.241845 -0.10542,-0.05891 -0.275953,-0.05891 z m 4.074173,0.911573 q 0.26355,-0.0062 0.334864,0.09612 0.07131,0.102319 0.139526,0.204638 0.07131,0.10232 0.08062,0.586011 0,0.03411 0,0.07131 -0.0031,0.5333 -0.229443,0.759643 -0.207739,0.204639 -0.508496,0.204639 -0.254248,0 -0.458887,-0.204639 -0.204639,-0.204638 -0.204639,-0.63872 0.0031,-0.458887 0.306958,-0.849561 0.173633,-0.220142 0.539502,-0.229443 z M 91.299702,51.98598 q -0.403076,0.539502 -0.403076,1.237134 0,0.74104 0.344165,1.156519 0.390674,0.465087 1.047998,0.468188 0.886768,0.0062 1.265039,-0.480591 0.328662,-0.399975 0.331763,-1.144116 0.0031,-0.855762 -0.15503,-1.085205 -0.158129,-0.229443 -0.31936,-0.458887 -0.15813,-0.229443 -0.886768,-0.235644 -0.793749,-0.0062 -1.224731,0.542602 z M 95.0235,49.703949 q -0.186035,0.0031 -0.241846,0.06201 -0.05581,0.05581 -0.114722,0.114721 -0.05581,0.05581 -0.05891,0.241846 l -0.10542,4.254004 q -0.0031,0.192236 0.10232,0.31626 0.105419,0.133325 0.300756,0.136426 0.213941,0.0031 0.341065,-0.120923 0.127124,-0.120923 0.130224,-0.322461 l 0.09612,-4.241602 q 0.0031,-0.201538 -0.05891,-0.260449 -0.05891,-0.06201 -0.120922,-0.120923 -0.06201,-0.05891 -0.269751,-0.05891 z m 1.739433,0 q -0.186035,0.0031 -0.241846,0.06201 -0.05581,0.05581 -0.114721,0.114721 -0.05581,0.05581 -0.05891,0.241846 l -0.105419,4.254004 q -0.0031,0.192236 0.102319,0.31626 0.10542,0.133325 0.300757,0.136426 0.21394,0.0031 0.341064,-0.120923 0.127124,-0.120923 0.130225,-0.322461 l 0.09612,-4.241602 q 0.0031,-0.201538 -0.05891,-0.260449 -0.05891,-0.06201 -0.120923,-0.120923 -0.06201,-0.05891 -0.269751,-0.05891 z m 3.643187,3.475757 q 0.18913,-0.02791 0.24184,-0.09612 0.0527,-0.07131 0.10542,-0.139527 0.0527,-0.06821 0.0589,-0.279052 0.0186,-0.505396 -0.35967,-0.877466 -0.41238,-0.406177 -1.212332,-0.362769 -0.772046,0.04341 -1.196826,0.669727 -0.331763,0.489892 -0.331763,1.128613 0.0031,0.79375 0.536402,1.234033 0.446484,0.365869 1.119311,0.372071 0.874368,0.0062 1.348758,-0.434082 0.14883,-0.136426 0.16743,-0.220142 0.0217,-0.08372 0.0403,-0.167432 0.0217,-0.08372 -0.0589,-0.260449 -0.0434,-0.08992 -0.0868,-0.10852 -0.0434,-0.0217 -0.0868,-0.04031 -0.0434,-0.0217 -0.14262,0 -0.0899,0.0186 -0.13333,0.05271 -0.0403,0.03411 -0.0837,0.07131 -0.0434,0.03411 -0.15813,0.15503 -0.173628,0.182934 -0.768941,0.189135 -0.390674,0.0031 -0.706933,-0.251147 -0.217041,-0.176733 -0.254249,-0.347266 z m -1.717726,-0.731738 q 0.238745,-0.331763 0.648022,-0.331763 0.272852,0 0.517798,0.148828 0.130225,0.08061 0.189136,0.201538 l -1.485181,0.223242 q 0.08992,-0.182934 0.130225,-0.241845 z m 3.196706,-1.144117 q -0.17984,0 -0.29146,0.07441 -0.11162,0.08062 -0.11472,0.213941 l -0.0682,2.892846 q -0.003,0.167432 0.0961,0.257349 0.0899,0.08372 0.28525,0.08682 0.20154,0.0031 0.32246,-0.08372 0.14263,-0.10232 0.14883,-0.248047 l 0.0589,-1.878955 q 0.31316,-0.204639 0.55811,-0.254248 0.31316,-0.06511 0.5395,0.07751 0.17363,0.108521 0.21394,0.120923 0.10852,0.03101 0.20464,-0.0186 0.0992,-0.05271 0.16743,-0.195337 0.0248,-0.04651 0.0744,-0.195337 0.11162,-0.31936 -0.43098,-0.570508 -0.28215,-0.133325 -0.72244,-0.127124 -0.26044,0.0062 -0.59221,0.148828 -0.0372,-0.164331 -0.17363,-0.241845 -0.10542,-0.05891 -0.27595,-0.05891 z"
       id="text9-3-5-78"
       style="font-weight:bold;font-size:6.35px;font-family:'Comic Relief';-inkscape-font-specification:'Comic Relief, Bold';stroke-width:0.264583"
       aria-label="Filament sensor controller" /></g><g
     id="g2" /></svg>
